<?xml version="1.0" encoding="UTF-8" standalone="no"?><!DOCTYPE svg PUBLIC "-//W3C//DTD SVG 1.1//EN" "http://www.w3.org/Graphics/SVG/1.1/DTD/svg11.dtd"><svg width="100%" height="100%" viewBox="0 0 2134 2134" version="1.1" xmlns="http://www.w3.org/2000/svg" xmlns:xlink="http://www.w3.org/1999/xlink" xml:space="preserve" xmlns:serif="http://www.serif.com/" style="fill-rule:evenodd;clip-rule:evenodd;stroke-linejoin:round;stroke-miterlimit:2;"><g><path d="M1506.67,112.833c-328.062,-51.816 -662.754,-44.659 -988.3,21.134c-114.966,26.692 -221.797,80.776 -311.367,157.633c-88.394,74.918 -139.709,184.896 -140.333,300.767c0.006,79.831 24.438,157.781 70,223.333c11.133,31.467 64.666,134.8 296.666,207.9l0,243.067c0,18.286 15.048,33.333 33.334,33.333c18.286,0 33.333,-15.047 33.333,-33.333l-0,-224.4c21,5.289 43.222,10.322 66.667,15.1l-0,442.633c-0,18.286 15.047,33.333 33.333,33.333c18.286,0 33.333,-15.047 33.333,-33.333l0,-430.467c21.234,3.334 43.6,6.667 66.667,9.5l-0,520.967c0.175,42.125 26.95,79.825 66.667,93.867l-0,172.8c-0,18.286 15.047,33.333 33.333,33.333c18.286,0 33.333,-15.047 33.333,-33.333l0,-172.8c39.717,-14.042 66.492,-51.742 66.667,-93.867l0,-166.667c0,-18.286 15.047,-33.333 33.333,-33.333c18.286,0 33.334,15.047 33.334,33.333l-0,400c-0,54.859 45.141,100 100,100c54.858,0 100,-45.141 100,-100l-0,-500c-0,-18.286 15.047,-33.333 33.333,-33.333c18.286,0 33.333,15.047 33.333,33.333l0,233.334c0.175,42.125 26.95,79.825 66.667,93.866l-0,106.134c-0,18.286 15.047,33.333 33.333,33.333c18.286,0 33.334,-15.047 33.334,-33.333l-0,-106.134c39.716,-14.041 66.492,-51.741 66.666,-93.866l0,-487.634c35.434,-4.5 68.834,-9.6 100,-15.233l0,502.867c0,18.286 15.048,33.333 33.334,33.333c18.286,-0 33.333,-15.047 33.333,-33.333l-0,-516.434c318.533,-72 384.567,-200 396.667,-235.066c75.102,-108.175 90.727,-247.258 41.5,-369.4c-70.134,-174.234 -248.967,-286.3 -531.5,-332.934Zm-979.667,867.167c13.333,-1.489 26.556,-3.244 39.667,-5.267l-0,14.367c-13.734,-2.867 -26.956,-5.9 -39.667,-9.1Zm106.333,21.867l0,-38.134c20.867,-3.7 41.6,-7.4 61.934,-10.266l4.733,-0.6l-0,59.033c-23.333,-3.067 -45.433,-6.433 -66.667,-10.033Zm700,598.133c-18.286,0 -33.333,-15.047 -33.333,-33.333l0,-233.334c0,-54.858 -45.142,-100 -100,-100c-54.858,0 -100,45.142 -100,100l0,500c0,18.286 -15.047,33.334 -33.333,33.334c-18.286,-0 -33.334,-15.048 -33.334,-33.334l0,-400c0,-54.858 -45.141,-100 -100,-100c-54.858,0 -100,45.142 -100,100l0,166.667c0,18.286 -15.047,33.333 -33.333,33.333c-18.286,0 -33.333,-15.047 -33.333,-33.333l-0,-656.1c88.799,-12.159 178.225,-19.204 267.833,-21.1c110.973,-1.531 221.928,4.137 332.167,16.967l-0,626.9c-0,18.286 -15.048,33.333 -33.334,33.333Zm100,-588.1l0,-63.333c25.267,3.7 50.7,7.2 75.334,11.7l25.066,4.4c-0.171,0.658 -0.304,1.326 -0.4,2l0,29.266c-30.966,5.867 -64.166,11.267 -100,15.967Zm166.667,-37.6c6.933,0.8 14.2,1.433 21.433,2.1c-6.933,1.8 -14.166,3.533 -21.433,5.3l0,-7.4Zm264.5,-117.633c-67.033,48.266 -146.833,63.966 -258.767,51.1c-30.8,-3.534 -61.666,-8.867 -85.1,-13.134c-160.696,-28.376 -323.739,-41.312 -486.9,-38.633c-116.461,3.004 -232.61,13.47 -347.733,31.333c-23.333,3.334 -47.333,7.534 -71.4,11.834c-71.788,17.524 -146.173,21.817 -219.5,12.666c-151.535,-30.538 -261.518,-164.895 -261.518,-319.477c-0,-96.278 42.664,-187.77 116.418,-249.656c80.833,-69.682 177.29,-118.854 281.167,-143.333c181.479,-35.558 365.937,-53.718 550.866,-54.234c138.603,-0.241 276.991,10.908 413.767,33.334c261.633,43.333 418.833,138.8 480.667,292.1c55.743,138.671 9.316,298.765 -111.967,386.1Z" style="fill:#c4d925;fill-rule:nonzero;"/><path d="M1333.33,1966.67c18.286,-0 33.334,-15.048 33.334,-33.334l-0,-33.333c-0,-18.286 -15.048,-33.333 -33.334,-33.333c-18.286,-0 -33.333,15.047 -33.333,33.333l0,33.333c0,18.286 15.047,33.334 33.333,33.334Z" style="fill:#c4d925;fill-rule:nonzero;"/><path d="M833.333,2000c0,-18.286 -15.047,-33.333 -33.333,-33.333c-18.286,-0 -33.333,15.047 -33.333,33.333l-0,33.333c-0,18.286 15.047,33.334 33.333,33.334c18.286,-0 33.333,-15.048 33.333,-33.334l0,-33.333Z" style="fill:#c4d925;fill-rule:nonzero;"/><path d="M600,1733.33c18.286,0 33.333,-15.047 33.333,-33.333l0,-66.667c0,-18.286 -15.047,-33.333 -33.333,-33.333c-18.286,0 -33.333,15.047 -33.333,33.333l-0,66.667c-0,18.286 15.047,33.333 33.333,33.333Z" style="fill:#c4d925;fill-rule:nonzero;"/><path d="M566.667,1866.67c-0,18.286 15.047,33.333 33.333,33.333c18.286,0 33.333,-15.047 33.333,-33.333l0,-33.334c0,-18.286 -15.047,-33.333 -33.333,-33.333c-18.286,0 -33.333,15.047 -33.333,33.333l-0,33.334Z" style="fill:#c4d925;fill-rule:nonzero;"/><path d="M1566.67,1766.67c18.286,-0 33.333,-15.048 33.333,-33.334l-0,-33.333c-0,-18.286 -15.047,-33.333 -33.333,-33.333c-18.286,-0 -33.334,15.047 -33.334,33.333l0,33.333c0,18.286 15.048,33.334 33.334,33.334Z" style="fill:#c4d925;fill-rule:nonzero;"/><path d="M1533.33,1900c0,18.286 15.048,33.333 33.334,33.333c18.286,0 33.333,-15.047 33.333,-33.333l-0,-33.333c-0,-18.286 -15.047,-33.334 -33.333,-33.334c-18.286,0 -33.334,15.048 -33.334,33.334l0,33.333Z" style="fill:#c4d925;fill-rule:nonzero;"/><path d="M664.1,233.333l-100.967,7.767c-203.453,16.513 -362.321,188.113 -363.133,392.233c0,18.286 15.047,33.334 33.333,33.334c18.286,-0 33.334,-15.048 33.334,-33.334c0.719,-169.496 132.657,-311.962 301.6,-325.666l100.966,-7.667c17.312,-1.281 30.873,-15.883 30.873,-33.242c0,-0.887 -0.035,-1.774 -0.106,-2.658c-1.102,-17.277 -15.621,-30.9 -32.933,-30.9c-0.991,-0 -1.981,0.044 -2.967,0.133Z" style="fill:#c4d925;fill-rule:nonzero;"/><path d="M1633.33,266.667c-18.286,-0 -33.333,15.047 -33.333,33.333c0,18.286 15.047,33.333 33.333,33.333c128.003,0 233.334,105.331 233.334,233.334c-0,128.003 -105.331,233.333 -233.334,233.333l-33.333,0c-18.286,0 -33.333,15.047 -33.333,33.333c-0,18.286 15.047,33.334 33.333,33.334l33.333,-0c164.575,-0 300,-135.425 300,-300c0,-164.575 -135.425,-300 -300,-300Z" style="fill:#c4d925;fill-rule:nonzero;"/></g></svg>