<?xml version="1.0" encoding="UTF-8" standalone="no"?><!DOCTYPE svg PUBLIC "-//W3C//DTD SVG 1.1//EN" "http://www.w3.org/Graphics/SVG/1.1/DTD/svg11.dtd"><svg width="100%" height="100%" viewBox="0 0 2134 2134" version="1.1" xmlns="http://www.w3.org/2000/svg" xmlns:xlink="http://www.w3.org/1999/xlink" xml:space="preserve" xmlns:serif="http://www.serif.com/" style="fill-rule:evenodd;clip-rule:evenodd;stroke-linejoin:round;stroke-miterlimit:2;"><path d="M1471.26,594.029l151.942,0c16.108,0 29.167,13.058 29.167,29.167c-0,16.108 -13.059,29.167 -29.167,29.167l-151.942,-0c-16.108,-0 -29.166,-13.059 -29.166,-29.167c-0,-16.109 13.058,-29.167 29.166,-29.167Zm-404.591,-346.258c16.108,-0 29.166,-13.058 29.166,-29.167l0,-151.937c0,-16.109 -13.058,-29.167 -29.166,-29.167c-16.109,0 -29.167,13.058 -29.167,29.167l0,151.941c0,16.109 13.058,29.163 29.167,29.163Zm286.087,118.504c7.467,0 14.929,-2.85 20.625,-8.546l107.438,-107.437c11.387,-11.388 11.387,-29.854 -0,-41.242c-11.388,-11.392 -29.859,-11.392 -41.246,0l-107.438,107.438c-11.387,11.387 -11.387,29.854 0,41.241c5.692,5.696 13.159,8.546 20.621,8.546Zm-842.621,286.088l151.942,-0c16.108,-0 29.167,-13.059 29.167,-29.167c-0,-16.109 -13.059,-29.167 -29.167,-29.167l-151.942,0c-16.108,0 -29.166,13.058 -29.166,29.167c-0,16.108 13.058,29.167 29.166,29.167Zm249.817,-294.634c5.696,5.696 13.158,8.546 20.625,8.546c7.462,0 14.929,-2.85 20.625,-8.542c11.387,-11.391 11.387,-29.858 -0,-41.245l-107.438,-107.438c-11.391,-11.387 -29.858,-11.392 -41.245,0c-11.388,11.387 -11.388,29.854 -0,41.242l107.433,107.437Zm950.967,1467.86c-5.15,3.7 -11.1,5.475 -16.992,5.475c-9.075,-0 -18.017,-4.221 -23.713,-12.154l-156.604,-218.038l-149.908,-55.908c3.475,18.312 5.371,37.175 5.371,56.483c-0,17.317 -1.542,34.271 -4.35,50.8l117.171,110.313c2.45,2.308 4.483,5.02 6.008,8.025l143.729,282.866c7.296,14.359 1.571,31.917 -12.787,39.213c-4.234,2.154 -8.746,3.171 -13.188,3.171c-10.633,0.004 -20.879,-5.83 -26.025,-15.959l-141.425,-278.329l-91.492,-86.138c-30.625,74.971 -90.475,134.98 -165.354,165.788c20.846,30.404 56.35,66.392 116.504,95.242c14.521,6.966 20.65,24.391 13.684,38.912c-5.017,10.454 -15.45,16.563 -26.317,16.563c-4.229,-0 -8.525,-0.925 -12.591,-2.875c-81.396,-39.042 -125.713,-90.479 -149.446,-130.563c-18.321,3.479 -37.196,5.375 -56.517,5.375c-19.321,0 -38.196,-1.896 -56.517,-5.375c-23.866,40.342 -68.204,91.592 -149.446,130.563c-4.07,1.95 -8.362,2.87 -12.591,2.87c-10.871,0.001 -21.304,-6.099 -26.317,-16.558c-6.967,-14.521 -0.837,-31.946 13.683,-38.912c61.346,-29.425 96.767,-66.846 116.446,-95.267c-74.85,-30.817 -134.675,-90.812 -165.291,-165.762l-91.488,86.133l-141.425,278.329c-5.146,10.129 -15.392,15.958 -26.025,15.958c-4.442,0 -8.954,-1.016 -13.187,-3.17c-14.359,-7.296 -20.088,-24.855 -12.788,-39.213l143.729,-282.867c1.525,-3.004 3.559,-5.716 6.009,-8.025l117.166,-110.308c-2.808,-16.529 -4.354,-33.487 -4.354,-50.804c0,-19.308 1.896,-38.171 5.371,-56.479l-149.904,55.904l-156.604,218.042c-5.7,7.929 -14.642,12.15 -23.713,12.15c-5.892,-0 -11.837,-1.78 -16.992,-5.475c-13.083,-9.4 -16.07,-27.621 -6.675,-40.709l161.788,-225.25c3.379,-4.704 8.075,-8.291 13.5,-10.316l157.342,-58.675c-60.813,-43.067 -111.917,-98.938 -149.575,-164.159c-86.771,-150.287 -92.842,-333.137 -16.242,-489.125c5.217,-10.625 16.308,-17.058 28.137,-16.246c58.517,3.934 114.963,17.588 167.421,39.684l0,-237.6c0,-159.113 129.446,-288.554 288.554,-288.554c159.113,-0 288.555,129.441 288.555,288.554l-0,237.6c52.462,-22.096 108.904,-35.75 167.42,-39.684c11.805,-0.837 22.921,5.63 28.138,16.246c76.6,155.988 70.529,338.834 -16.242,489.125c-37.654,65.221 -88.762,121.092 -149.571,164.159l157.342,58.679c5.425,2.021 10.121,5.612 13.5,10.316l161.788,225.255c9.37,13.083 6.383,31.304 -6.7,40.704Zm-204.13,-944.525c-145.92,16.07 -275.387,100.166 -349.1,227.845c-33.95,58.796 -54.537,124.55 -60.229,191.696c101.059,10.267 187.542,70.517 234.329,155.555c62.584,-39.671 114.846,-94.088 152.234,-158.842c73.712,-127.679 81.808,-281.85 22.766,-416.254Zm-399.616,198.675c11.758,-20.367 24.816,-39.709 38.966,-58.03l-158.937,0c14.15,18.317 27.208,37.663 38.967,58.03c16.27,28.183 29.812,57.791 40.504,88.333c10.683,-30.542 24.225,-60.15 40.5,-88.333Zm-270.725,-456.546l-0,130.608l460.441,0l0,-130.608c0,-6.963 -0.362,-13.838 -0.97,-20.642l-458.5,0c-0.609,6.804 -0.971,13.679 -0.971,20.642Zm13.954,-78.975l432.525,-0c-32.296,-88.163 -117.05,-151.246 -216.263,-151.246c-99.212,-0 -183.966,63.083 -216.262,151.246Zm-13.954,345.558c35.454,20.5 68.412,45.204 98.2,73.604l264.046,0c29.783,-28.4 62.745,-53.1 98.2,-73.604l-0,-77.642l-460.446,0l-0,77.642Zm-34.904,566.379c46.787,-85.037 133.27,-145.287 234.329,-155.554c-5.688,-67.146 -26.279,-132.896 -60.225,-191.696c-73.713,-127.679 -203.179,-211.771 -349.1,-227.846c-59.042,134.409 -50.946,288.58 22.766,416.25c37.384,64.763 89.65,119.175 152.23,158.846Zm509.195,145.292c0,-134.583 -109.487,-244.071 -244.07,-244.071c-134.584,0 -244.071,109.488 -244.071,244.071c-0,134.579 109.487,244.067 244.071,244.067c134.583,-0 244.07,-109.488 244.07,-244.067Z" style="fill:#c4d925;fill-rule:nonzero;"/></svg>