<?xml version="1.0" encoding="UTF-8" standalone="no"?><!DOCTYPE svg PUBLIC "-//W3C//DTD SVG 1.1//EN" "http://www.w3.org/Graphics/SVG/1.1/DTD/svg11.dtd"><svg width="100%" height="100%" viewBox="0 0 2134 2134" version="1.1" xmlns="http://www.w3.org/2000/svg" xmlns:xlink="http://www.w3.org/1999/xlink" xml:space="preserve" xmlns:serif="http://www.serif.com/" style="fill-rule:evenodd;clip-rule:evenodd;stroke-linejoin:round;stroke-miterlimit:2;"><g><circle cx="792.308" cy="1428.03" r="41.667" style="fill:#c4d925;"/><path d="M2064.89,782.188c-42.988,-28.788 -97.254,-34.192 -145.167,-14.459c-161.092,66.363 -329.354,113.821 -500.642,141.258c-7.862,-14.274 -18.454,-27.058 -31.458,-37.67c-11.771,-9.605 -24.887,-16.921 -38.808,-21.813l58.5,-331.375c-0,0 17.775,-23.354 17.996,-23.658c20.112,-27.938 28.141,-62.042 22.608,-96.021c-5.533,-33.983 -23.971,-63.771 -51.908,-83.879c-57.396,-41.321 -137.609,-28.5 -179.309,28.475l-81.929,103.821c-2.967,3.758 -7.15,6.504 -11.779,7.72l-153.229,40.396c53.071,-42.062 87.216,-107.021 87.216,-179.841c0,-126.513 -102.925,-229.438 -229.437,-229.438c-126.513,0 -229.438,102.925 -229.438,229.438c0,62.125 24.859,118.525 65.1,159.879c-108.441,33.541 -193.07,124.812 -214.637,241.275c-0.025,0.146 -0.054,0.296 -0.079,0.45l-22.004,126.562c-72.105,-21.591 -143.3,-46.841 -213.4,-75.775c-47.592,-19.646 -101.592,-14.266 -144.434,14.404c-42.991,28.759 -68.654,76.792 -68.654,128.496l0,171.096c0,103.717 40.375,201.217 113.696,274.533c73.383,73.334 170.887,113.717 274.554,113.717l212.892,0c23.058,0 41.75,-18.692 41.75,-41.75c-0,-23.054 -18.692,-41.75 -41.75,-41.75l-212.892,0c-81.375,0 -157.925,-31.708 -215.525,-89.271c-57.542,-57.537 -89.229,-134.066 -89.229,-215.483l-0,-171.096c-0,-24.133 11.508,-45.675 31.579,-59.1c19.929,-13.337 44.038,-15.75 66.15,-6.621c237.504,98.025 487.133,155.663 742.379,171.45l6.229,13.392c24.996,53.733 79.625,88.108 138.321,88.104c3.696,0 150.467,-10.767 150.467,-10.767l-49.325,279.388l-185.821,-0c-23.058,-0 -41.75,18.692 -41.75,41.75c0,23.054 18.692,41.75 41.75,41.75l171.079,-0l-16.35,92.608c-72.821,4.463 -137.167,53.896 -158.437,126.796l-55.771,191.133c-17.383,59.58 22.1,122.95 83.112,133.717l181.417,32.021c61.112,10.796 119.813,-35.35 123.867,-97.192l13.029,-198.675c4.958,-75.604 -38.375,-143.925 -105.013,-173.162l0.388,-2.192l18.55,-105.058l505.737,-0c214.084,-0 388.25,-174.167 388.25,-388.25l0,-171.096c0,-51.596 -25.583,-99.542 -68.441,-128.238Zm-920.621,-246.858c22.025,-5.804 41.925,-18.846 56.042,-36.733c-0,-0 83.195,-105.446 83.554,-105.946c14.621,-20.313 43.037,-24.942 63.354,-10.317c9.842,7.084 16.333,17.571 18.279,29.538c1.921,11.812 -0.808,23.662 -7.688,33.429l-130.208,171.004c-3.229,4.242 -7.883,7.183 -13.104,8.283l-168.012,35.355l-5.725,-12.955c-11.73,-26.545 -26.93,-50.845 -44.867,-72.545l148.375,-39.113Zm149.762,131.563l-29.129,177.625l-124.137,7.062c-5.45,0.246 -10.546,-2.654 -12.954,-7.579l-46.83,-105.992l150.717,-31.716c24.829,-5.221 46.967,-19.217 62.333,-39.4Zm-466.496,-497.688c80.475,0 145.942,65.467 145.942,145.938c0,80.475 -65.466,145.941 -145.942,145.941c-80.475,0 -145.941,-65.466 -145.941,-145.941c-0,-80.471 65.471,-145.938 145.942,-145.938Zm37.533,611.946c-11.175,3.858 -20.192,12.267 -24.813,23.15c-4.621,10.883 -4.412,23.208 0.571,33.929l42.479,91.317c-127.183,-10.467 -252.812,-31.742 -376.012,-63.646l23.404,-134.613c20.142,-108.195 114.592,-186.7 224.662,-186.7c90.43,0 172.48,53.446 209.025,136.159l25.367,57.408l-124.683,42.996Zm377.033,963.575l-13.029,198.675c-0.854,13.05 -13.146,22.687 -26.038,20.429l-181.416,-32.021c-12.863,-2.271 -21.138,-15.537 -17.471,-28.108l55.771,-191.133c9.15,-31.355 33.437,-54.405 62.916,-63.125l-11.125,63.004c-3.904,22.112 11.038,43.862 33.046,48.216c22.625,4.476 45.167,-10.991 49.179,-33.691l11.096,-62.842c24.467,18.317 39.2,48.179 37.071,80.596Zm-169,-710.746c-28.404,2.092 -55.554,-13.817 -67.562,-39.642l-69.475,-149.345l87.562,-30.2l28.033,63.45c0.109,0.245 0.221,0.487 0.334,0.733c16.871,36.271 53.546,58.275 93.521,55.967c-0,-0 155.437,-8.855 156.05,-8.917c12.041,-1.246 23.87,2.321 33.271,9.987c9.391,7.667 15.241,18.525 16.462,30.588c2.508,24.746 -15.454,46.933 -40.112,49.692l-238.084,17.687Zm976.734,47.55c-0.001,168.042 -136.713,304.754 -304.755,304.754l-491,0l50.455,-285.77c-0,-0 14.229,-1.063 14.604,-1.101c59.425,-6.029 105.408,-51.745 114.312,-108.158c177.263,-28.483 351.375,-77.646 518.071,-146.316c22.425,-9.225 46.813,-6.821 66.908,6.633c19.959,13.362 31.405,34.821 31.405,58.867l-0.001,171.091Z" style="fill:#c4d925;fill-rule:nonzero;"/></g></svg>