<svg width="50" height="50" viewBox="0 0 50 50" fill="none" xmlns="http://www.w3.org/2000/svg">
<path fill-rule="evenodd" clip-rule="evenodd" d="M18.75 10.9375C18.75 8.34867 20.8487 6.25 23.4375 6.25H26.5625C29.1513 6.25 31.25 8.34867 31.25 10.9375V14.0625C31.25 16.6513 29.1513 18.75 26.5625 18.75V21.875H43.75C44.6129 21.875 45.3125 22.5746 45.3125 23.4375V26.5625C45.3125 27.4254 44.6129 28.125 43.75 28.125C42.8871 28.125 42.1875 27.4254 42.1875 26.5625V25H26.5625V26.5625C26.5625 27.4254 25.8629 28.125 25 28.125C24.1371 28.125 23.4375 27.4254 23.4375 26.5625V25H7.8125V26.5625C7.8125 27.4254 7.11295 28.125 6.25 28.125C5.38705 28.125 4.6875 27.4254 4.6875 26.5625V23.4375C4.6875 22.5746 5.38705 21.875 6.25 21.875H23.4375V18.75C20.8487 18.75 18.75 16.6513 18.75 14.0625V10.9375ZM26.5625 15.625C27.4254 15.625 28.125 14.9254 28.125 14.0625V10.9375C28.125 10.0746 27.4254 9.375 26.5625 9.375H23.4375C22.5746 9.375 21.875 10.0746 21.875 10.9375V14.0625C21.875 14.9254 22.5746 15.625 23.4375 15.625H26.5625ZM0 35.9375C0 33.3487 2.09867 31.25 4.6875 31.25H7.8125C10.4013 31.25 12.5 33.3487 12.5 35.9375V39.0625C12.5 41.6513 10.4013 43.75 7.8125 43.75H4.6875C2.09867 43.75 0 41.6513 0 39.0625V35.9375ZM4.6875 34.375C3.82456 34.375 3.125 35.0746 3.125 35.9375V39.0625C3.125 39.9254 3.82456 40.625 4.6875 40.625H7.8125C8.67544 40.625 9.375 39.9254 9.375 39.0625V35.9375C9.375 35.0746 8.67544 34.375 7.8125 34.375H4.6875ZM18.75 35.9375C18.75 33.3487 20.8487 31.25 23.4375 31.25H26.5625C29.1513 31.25 31.25 33.3487 31.25 35.9375V39.0625C31.25 41.6513 29.1513 43.75 26.5625 43.75H23.4375C20.8487 43.75 18.75 41.6513 18.75 39.0625V35.9375ZM23.4375 34.375C22.5746 34.375 21.875 35.0746 21.875 35.9375V39.0625C21.875 39.9254 22.5746 40.625 23.4375 40.625H26.5625C27.4254 40.625 28.125 39.9254 28.125 39.0625V35.9375C28.125 35.0746 27.4254 34.375 26.5625 34.375H23.4375ZM37.5 35.9375C37.5 33.3487 39.5987 31.25 42.1875 31.25H45.3125C47.9013 31.25 50 33.3487 50 35.9375V39.0625C50 41.6513 47.9013 43.75 45.3125 43.75H42.1875C39.5987 43.75 37.5 41.6513 37.5 39.0625V35.9375ZM42.1875 34.375C41.3246 34.375 40.625 35.0746 40.625 35.9375V39.0625C40.625 39.9254 41.3246 40.625 42.1875 40.625H45.3125C46.1754 40.625 46.875 39.9254 46.875 39.0625V35.9375C46.875 35.0746 46.1754 34.375 45.3125 34.375H42.1875Z" fill="black"/>
</svg>
