<?xml version="1.0" encoding="UTF-8" standalone="no"?><!DOCTYPE svg PUBLIC "-//W3C//DTD SVG 1.1//EN" "http://www.w3.org/Graphics/SVG/1.1/DTD/svg11.dtd"><svg width="100%" height="100%" viewBox="0 0 2134 2134" version="1.1" xmlns="http://www.w3.org/2000/svg" xmlns:xlink="http://www.w3.org/1999/xlink" xml:space="preserve" xmlns:serif="http://www.serif.com/" style="fill-rule:evenodd;clip-rule:evenodd;stroke-linecap:round;stroke-linejoin:round;stroke-miterlimit:10;"><g><g><g><path d="M115.963,1538.14l101.583,-0c29.558,-0 53.521,23.962 53.521,53.521l-0,406.108c-0,57.608 -46.7,104.312 -104.313,104.312c-57.608,0 -104.312,-46.7 -104.312,-104.312l-0,-406.109c-0,-29.558 23.962,-53.52 53.52,-53.52Z" style="fill:none;fill-rule:nonzero;stroke:#c4d925;stroke-width:62.5px;"/><g><path d="M243.038,1009.14l-25.492,-178.396l-101.584,-0l-25.491,178.396l152.567,-0Z" style="fill:none;fill-rule:nonzero;stroke:#c4d925;stroke-width:62.5px;"/><path d="M50.542,1288.57l-19.292,134.996l84.713,114.575l101.583,-0l84.712,-114.575l-59.22,-414.43l-152.567,0l-21.479,150.321" style="fill:none;fill-rule:nonzero;stroke:#c4d925;stroke-width:62.5px;"/></g></g><rect x="62.442" y="1688.93" width="208.621" height="239.425" style="fill:none;stroke:#c4d925;stroke-width:62.5px;"/></g><g><g><path d="M697.938,1145.85l-0,914.563c-0,23.012 -18.655,41.666 -41.667,41.666l-54.167,0c-23.012,0 -41.666,-18.654 -41.666,-41.666l-0,-914.563" style="fill:none;fill-rule:nonzero;stroke:#c4d925;stroke-width:62.5px;"/><path d="M371.596,872.408l-0,231.779c-0,23.013 18.654,41.667 41.667,41.667l431.85,0c23.012,0 41.666,-18.654 41.666,-41.666l0,-231.78c0,-23.012 -18.654,-41.666 -41.667,-41.666l-431.85,-0c-23.012,-0 -41.666,18.654 -41.666,41.666Z" style="fill:none;fill-rule:nonzero;stroke:#c4d925;stroke-width:62.5px;"/></g><path d="M560.438,1901.92l137.5,0l-0,158.492c-0,23.012 -18.655,41.666 -41.667,41.666l-54.167,0c-23.012,0 -41.666,-18.654 -41.666,-41.666l-0,-158.492Z" style="fill:none;fill-rule:nonzero;stroke:#c4d925;stroke-width:62.5px;"/></g><g><g><g><path d="M1700.18,1835.18c33.954,-199.071 220.004,-296.842 401.904,-391.021c-1.279,-12.891 -3.316,-25.629 -6.058,-38.196c-36.175,-165.745 -196.958,-301.029 -409.796,-352.687" style="fill:none;fill-rule:nonzero;stroke:#c4d925;stroke-width:62.5px;"/><path d="M1302.64,1053.27c-212.838,51.658 -373.625,186.942 -409.796,352.687c-2.742,12.567 -4.783,25.304 -6.058,38.196c181.904,94.183 367.954,191.942 401.904,391.021" style="fill:none;fill-rule:nonzero;stroke:#c4d925;stroke-width:62.5px;"/><g><path d="M1771.04,182.8c15.108,24.042 24.962,51.721 27.95,81.425c69.587,12.046 122.525,72.671 122.525,145.7l-0,86.033c-0,33.392 -12.284,63.917 -32.58,87.3" style="fill:none;fill-rule:nonzero;stroke:#c4d925;stroke-width:62.5px;"/><path d="M1099.93,583.263c-20.296,-23.384 -32.579,-53.909 -32.579,-87.301l0,-108.708c0,-72.408 52.042,-132.625 120.754,-145.383c-0.783,-6.992 -1.221,-14.084 -1.221,-21.283c0,-104.571 84.771,-189.338 189.338,-189.338c63.983,-0 120.516,31.771 154.787,80.367c24.209,-11.238 51.163,-17.55 79.609,-17.55c24.525,-0 47.958,4.662 69.466,13.15" style="fill:none;fill-rule:nonzero;stroke:#c4d925;stroke-width:62.5px;"/><path d="M1836.14,547.671c-28.405,-0 -51.434,23.029 -51.434,51.433l0,-62.741c0,-21.746 -16.741,-39.634 -38.404,-41.521c-81.667,-7.104 -156.871,-39.513 -223.917,-86.267c-15.958,-11.125 -37.387,-9.779 -51.85,3.225c-59.804,53.783 -136.687,80.975 -211.633,56.296c-26.975,-8.884 -54.75,11.125 -54.75,39.525l0,91.483c0,-28.404 -23.029,-51.433 -51.433,-51.433c-28.404,-0 -51.434,23.029 -51.434,51.433l0,130.467c0,28.404 23.025,51.433 51.434,51.433l51.433,0l0,130.142c0,36.387 15.854,70.967 43.425,94.712l114.925,98.98c22.688,19.537 51.633,30.287 81.575,30.287l100.704,0c29.942,0 58.888,-10.746 81.571,-30.283l114.925,-98.979c27.571,-23.746 43.425,-58.325 43.425,-94.713l0,-130.142l51.433,0c28.405,0 51.434,-23.029 51.434,-51.433l-0,-130.467c0.004,-28.408 -23.021,-51.437 -51.429,-51.437Z" style="fill:none;fill-rule:nonzero;stroke:#c4d925;stroke-width:62.5px;"/></g></g><g><rect x="1035.4" y="1835.18" width="918.075" height="133.492" style="fill:none;stroke:#c4d925;stroke-width:62.5px;"/><rect x="888.754" y="1968.59" width="1211.36" height="133.492" style="fill:none;stroke:#c4d925;stroke-width:62.5px;"/></g></g><path d="M1425.64,900l137.583,0" style="fill:none;fill-rule:nonzero;stroke:#c4d925;stroke-width:62.5px;"/></g></g></svg>