<?xml version="1.0" encoding="UTF-8" standalone="no"?><!DOCTYPE svg PUBLIC "-//W3C//DTD SVG 1.1//EN" "http://www.w3.org/Graphics/SVG/1.1/DTD/svg11.dtd"><svg width="100%" height="100%" viewBox="0 0 2134 2134" version="1.1" xmlns="http://www.w3.org/2000/svg" xmlns:xlink="http://www.w3.org/1999/xlink" xml:space="preserve" xmlns:serif="http://www.serif.com/" style="fill-rule:evenodd;clip-rule:evenodd;stroke-linejoin:round;stroke-miterlimit:2;"><g><g><path d="M459.421,1853.94c-223.246,-183.013 -351.279,-453.33 -351.279,-741.634c-0,-173.308 46.745,-343.1 135.179,-491.025c76.604,-128.129 182.329,-236.879 307.762,-317.087l0,337.812c-117.658,128.879 -182.333,295.363 -182.333,470.296c0,174.933 64.675,341.421 182.333,470.3l0,209.054c0,40.208 32.717,72.925 72.925,72.925l885.321,0c40.209,0 72.925,-32.716 72.925,-72.925l0,-209.054c117.659,-128.879 182.334,-295.367 182.334,-470.3c-0,-174.933 -64.675,-341.417 -182.334,-470.296l0,-337.771c47.984,30.679 93.229,65.6 134.992,104.225c12.675,11.721 32.442,10.946 44.162,-1.725c11.721,-12.671 10.946,-32.441 -1.725,-44.158c-54.116,-50.05 -113.766,-94.167 -177.429,-131.5l0,-158.15c-0.004,-40.208 -32.716,-72.925 -72.929,-72.925l-885.317,-0c-40.208,-0 -72.925,32.717 -72.925,72.925l0,158.15c-148.329,86.967 -273.075,210.392 -361.408,358.138c-94.229,157.608 -144.033,338.491 -144.033,523.091c-0,307.104 136.375,595.038 374.154,789.967c5.812,4.766 12.825,7.083 19.792,7.083c9.037,0 18.008,-3.904 24.187,-11.437c10.942,-13.346 8.992,-33.038 -4.354,-43.98Zm910.129,-894.637l-157.133,-56.854l-0,-545.4c-0,-90.538 68.975,-165.263 157.133,-174.4l0,776.654Zm139.775,842.783l-885.317,0c-5.745,0 -10.425,-4.675 -10.425,-10.425l0,-583.325c0,-17.262 -13.991,-31.25 -31.25,-31.25c-17.258,0 -31.25,13.988 -31.25,31.25l0,275.375c-77.733,-107.612 -119.833,-236.758 -119.833,-371.4c-0,-134.641 42.1,-263.783 119.833,-371.4l0,321.592c0,17.263 13.992,31.25 31.25,31.25c17.259,0 31.25,-13.987 31.25,-31.25l0,-305.817l906.167,327.859l0,707.121c0,5.745 -4.675,10.42 -10.425,10.42Zm192.758,-689.779c0,134.646 -42.1,263.788 -119.833,371.4l0,-742.8c77.733,107.617 119.833,236.754 119.833,371.4Zm-1088.5,-1039.38c0,-5.75 4.679,-10.425 10.425,-10.425l885.321,-0c5.746,-0 10.425,4.675 10.425,10.425l0,940.717l-87.7,-31.73l0,-818.42c0,-24.417 -19.871,-44.288 -44.291,-44.288c-131.15,0 -237.846,106.692 -237.846,237.842l-0,522.787l-156.846,-56.75l-0,-156.575c52.55,-34.637 84.475,-93.175 84.475,-156.991l-0,-315.592c-0,-41.2 -33.521,-74.721 -74.721,-74.721l-226.825,0c-41.2,0 -74.721,33.521 -74.721,74.721l0,315.596c0,63.812 31.929,122.35 84.475,156.992l0,81.566l-172.175,-62.291l0,-612.863l0.004,0Zm223.746,380.1c17.259,0 31.25,-13.987 31.25,-31.25l0,-240.071l41.667,0l-0,240.067c-0,17.262 13.992,31.25 31.25,31.25c17.258,-0 31.25,-13.988 31.25,-31.25l-0,-240.067l30.079,0c6.738,0 12.221,5.479 12.221,12.221l-0,315.596c-0,46.979 -25.933,89.683 -67.675,111.45c-10.329,5.383 -16.804,16.062 -16.804,27.708l-0,151.792l-82.313,-29.779l0,-122.009c0,-11.645 -6.475,-22.325 -16.804,-27.708c-41.742,-21.767 -67.671,-64.471 -67.671,-111.45l0,-315.6c0,-6.737 5.484,-12.221 12.221,-12.221l30.079,0l0,240.067c0,17.262 13.992,31.254 31.25,31.254Z" style="fill:#c4d925;fill-rule:nonzero;"/><path d="M1862.38,472.575c-10.825,-13.45 -30.491,-15.571 -43.937,-4.75c-13.446,10.825 -15.571,30.496 -4.75,43.942c138.362,171.883 211.496,379.546 211.496,600.537c-0,256.029 -99.705,496.742 -280.746,677.784c-181.042,181.041 -421.746,280.745 -677.779,280.745c-172.763,0 -342.159,-46.521 -489.867,-134.529c-14.829,-8.837 -34.013,-3.979 -42.842,10.85c-8.837,14.829 -3.979,34.009 10.85,42.842c157.379,93.771 337.838,143.337 521.859,143.337c272.725,0 529.129,-106.204 721.975,-299.05c192.845,-192.846 299.05,-449.25 299.05,-721.975c-0,-232.041 -80.017,-459.237 -225.309,-639.733Z" style="fill:#c4d925;fill-rule:nonzero;"/></g></g></svg>