<?xml version="1.0" encoding="UTF-8" standalone="no"?><!DOCTYPE svg PUBLIC "-//W3C//DTD SVG 1.1//EN" "http://www.w3.org/Graphics/SVG/1.1/DTD/svg11.dtd"><svg width="100%" height="100%" viewBox="0 0 2134 2134" version="1.1" xmlns="http://www.w3.org/2000/svg" xmlns:xlink="http://www.w3.org/1999/xlink" xml:space="preserve" xmlns:serif="http://www.serif.com/" style="fill-rule:evenodd;clip-rule:evenodd;stroke-linejoin:round;stroke-miterlimit:2;"><g id="_x30_7_x2C__dinner_x2C__dinner_table_x2C__party_x2C__dine_x2C__food_and_restaurant"><g><g><path d="M2087.5,254.167l-83.333,-0c-91.9,-0 -166.667,74.766 -166.667,166.666l0,708.334l-375,-0c-91.9,-0 -166.667,74.766 -166.667,166.666l0,625c0,23.009 18.659,41.667 41.667,41.667l166.667,0c23.008,0 41.666,-18.658 41.666,-41.667l0,-500l333.334,0l-0,500c-0,23.009 18.658,41.667 41.666,41.667l166.667,0c23.008,0 41.667,-18.658 41.667,-41.667l-0,-1625c-0,-23.008 -18.659,-41.666 -41.667,-41.666Zm-625,1625l-83.333,-0l-0,-458.334l83.333,0l0,458.334Zm583.333,-0l-83.333,-0l0,-458.334l83.333,0l0,458.334Zm0,-541.667l-666.666,0l-0,-41.667c-0,-45.95 37.383,-83.333 83.333,-83.333l416.667,0c23.008,0 41.666,-18.658 41.666,-41.667l0,-750c0,-45.95 37.384,-83.333 83.334,-83.333l41.666,-0l0,1000Z" style="fill:#c4d925;fill-rule:nonzero;"/><path d="M670.833,1131.25l-375,0l0,-229.167c0,-23.012 -18.658,-41.666 -41.666,-41.666c-23.009,-0 -41.667,18.654 -41.667,41.666l0,270.834c0,23.008 18.658,41.666 41.667,41.666l416.666,0c46.73,0 83.334,35.688 83.334,81.25l-0,41.667c-87.513,0.021 -125.021,2.133 -666.667,0l0,-997.917l41.667,0c46.729,0 83.333,35.688 83.333,81.25l0,314.584c0,23.012 18.658,41.666 41.667,41.666c23.008,0 41.666,-18.654 41.666,-41.666l0,-314.584c0,-90.75 -74.766,-164.583 -166.666,-164.583l-83.334,0c-23.012,0 -41.666,18.658 -41.666,41.667l-0,1622.92c-0,23.009 18.654,41.667 41.666,41.667l166.667,0c23.008,0 41.667,-18.658 41.667,-41.667l-0,-497.916l333.333,-0l0,497.916c0,23.009 18.654,41.667 41.667,41.667l166.666,0c23.013,0 41.667,-18.658 41.667,-41.667l0,-625c0,-90.75 -74.767,-164.583 -166.667,-164.583Zm-500,747.917l-83.333,-0l-0,-456.25l83.333,-0l0,456.25Zm583.334,-0l-83.334,-0l0,-456.25l83.334,-0l-0,456.25Z" style="fill:#c4d925;fill-rule:nonzero;"/><path d="M1316.67,1047.92c23.008,-0 41.666,-18.654 41.666,-41.667c0,-23.012 -18.658,-41.667 -41.666,-41.667l-854.167,0l0,-210.416c0,-45.563 36.604,-81.25 83.333,-81.25l1041.67,-0c46.729,-0 83.333,35.687 83.333,81.25l0,210.416l-187.5,0c-23.008,0 -41.666,18.655 -41.666,41.667c-0,23.013 18.658,41.667 41.666,41.667l229.167,-0c23.008,-0 41.667,-18.654 41.667,-41.667l-0,-252.083c-0,-90.75 -74.767,-164.584 -166.667,-164.584l0,-92.583c48.496,-17.2 83.333,-63.512 83.333,-117.833l0,-166.667c0,-23.008 -18.658,-41.667 -41.666,-41.667l-166.667,0c-23.008,0 -41.667,18.659 -41.667,41.667l0,166.667c0,54.316 34.838,100.633 83.334,117.833l-0,92.583l-145.875,0c1.075,-147.408 -107.934,-270.316 -249.959,-290.725l0,-44.691c0,-23.009 -18.658,-41.667 -41.666,-41.667c-23.013,0 -41.667,18.658 -41.667,41.667l-0,44.691c-141.904,20.396 -251.033,143.2 -249.958,290.725l-145.875,0l-0,-92.583c48.495,-17.2 83.333,-63.512 83.333,-117.833l-0,-166.667c-0,-23.008 -18.654,-41.667 -41.667,-41.667l-166.666,0c-23.009,0 -41.667,18.659 -41.667,41.667l-0,166.667c-0,54.316 34.837,100.633 83.333,117.833l0,92.583c-91.9,0 -166.666,73.834 -166.666,164.584l-0,252.083c-0,23.013 18.658,41.667 41.666,41.667l520.834,-0l-0,872.916c-0,23.009 18.654,41.667 41.666,41.667l166.667,0c23.008,0 41.667,-18.658 41.667,-41.667l-0,-872.916l125,-0Zm187.5,-793.75l83.333,-0l-0,125c-0,22.975 -18.692,41.666 -41.667,41.666c-22.975,0 -41.666,-18.691 -41.666,-41.666l-0,-125Zm-437.5,125c114.858,-0 209.4,93.791 208.291,210.416l-416.583,0c-1.108,-116.591 93.387,-210.416 208.292,-210.416Zm-520.834,-125l83.334,-0l-0,125c-0,22.975 -18.692,41.666 -41.667,41.666c-22.975,0 -41.667,-18.691 -41.667,-41.666l0,-125Zm562.5,1625l-83.333,-0l0,-831.25l83.333,-0l0,831.25Z" style="fill:#c4d925;fill-rule:nonzero;"/></g></g></g></svg>