<svg width="22" height="22" viewBox="0 0 22 22" fill="none" xmlns="http://www.w3.org/2000/svg">
<path d="M14.5949 6.18888C13.7923 6.1888 13.0786 6.18875 12.5023 6.26624C11.8761 6.35048 11.2437 6.5447 10.7268 7.06173C10.2099 7.57875 10.0157 8.21137 9.93155 8.83787C9.8541 9.41427 9.8541 10.1283 9.85419 10.9311V11.6906H9.16669C8.53386 11.6906 8.02085 12.2038 8.02085 12.8368C8.02085 13.4698 8.53386 13.983 9.16669 13.983H9.85419V19.4806C9.85419 19.9154 9.85419 20.1328 9.71788 20.2674C9.58157 20.4021 9.36588 20.3993 8.9345 20.3938C7.84418 20.3801 6.91696 20.3419 6.13071 20.2361C4.86878 20.0664 3.86754 19.7115 3.08085 18.9245C2.29418 18.1376 1.93939 17.1361 1.76973 15.8737C1.60417 14.6418 1.60418 13.0641 1.60419 11.0553V10.9504C1.60418 8.94169 1.60417 7.36389 1.76973 6.13204C1.93939 4.86971 2.29418 3.86816 3.08085 3.08123C3.86754 2.2943 4.86878 1.9394 6.13071 1.76969C7.36216 1.60408 8.93948 1.60409 10.9476 1.6041H11.0525C13.0606 1.60409 14.6379 1.60408 15.8694 1.76969C17.1312 1.9394 18.1325 2.2943 18.9192 3.08123C19.7059 3.86816 20.0606 4.8697 20.2303 6.13204C20.3959 7.36389 20.3959 8.9417 20.3959 10.9504V11.0554C20.3959 13.0641 20.3959 14.6418 20.2303 15.8737C20.0606 17.1361 19.7059 18.1376 18.9192 18.9245C18.1325 19.7115 17.1312 20.0664 15.8694 20.2361C15.0831 20.3419 14.1558 20.3801 13.0655 20.3938C12.6342 20.3993 12.4185 20.4021 12.2822 20.2674C12.1459 20.1328 12.1459 19.9154 12.1459 19.4806V13.983H13.75C14.3829 13.983 14.8959 13.4698 14.8959 12.8368C14.8959 12.2038 14.3829 11.6906 13.75 11.6906H12.1459V11.0029C12.1459 10.106 12.1483 9.54856 12.2028 9.14332C12.2519 8.77753 12.3245 8.70528 12.3461 8.6838L12.3472 8.6827L12.3483 8.68159C12.3698 8.65999 12.442 8.58736 12.8077 8.53818C13.2129 8.4837 13.7701 8.48127 14.6667 8.48127H15.5834C16.2162 8.48127 16.7292 7.9681 16.7292 7.33507C16.7292 6.70205 16.2162 6.18888 15.5834 6.18888H14.5949Z" fill="white"/>
</svg>
