<svg width="50" height="50" viewBox="0 0 50 50" fill="none" xmlns="http://www.w3.org/2000/svg">
<path d="M23.8951 3.58265C24.5053 2.97245 25.4947 2.97245 26.1049 3.58265L30.7924 8.27015C31.4025 8.88034 31.4025 9.86966 30.7924 10.4799C30.1822 11.09 29.1928 11.09 28.5826 10.4799L26.5625 8.45971V14.0625C26.5625 14.9254 25.8629 15.625 25 15.625C24.1371 15.625 23.4375 14.9254 23.4375 14.0625V8.45971L21.4174 10.4799C20.8072 11.09 19.8178 11.09 19.2076 10.4799C18.5975 9.86966 18.5975 8.88034 19.2076 8.27015L23.8951 3.58265ZM7.32233 13.5723C7.93252 12.9621 8.92184 12.9621 9.53204 13.5723L13.9515 17.9917C14.5617 18.6019 14.5617 19.5913 13.9515 20.2015C13.3413 20.8116 12.3519 20.8116 11.7417 20.2015L7.32233 15.782C6.71214 15.1718 6.71214 14.1825 7.32233 13.5723ZM42.6777 13.5723C43.2879 14.1825 43.2879 15.1718 42.6777 15.782L38.2583 20.2015C37.6481 20.8116 36.6587 20.8116 36.0485 20.2015C35.4384 19.5913 35.4384 18.6019 36.0485 17.9917L40.468 13.5723C41.0782 12.9621 42.0675 12.9621 42.6777 13.5723ZM25 21.875C30.1777 21.875 34.375 26.0723 34.375 31.25C34.375 32.9597 33.9187 34.5593 33.1211 35.9375H16.8789C16.0813 34.5593 15.625 32.9597 15.625 31.25C15.625 26.0723 19.8223 21.875 25 21.875ZM36.5909 35.9375C37.1771 34.4892 37.5 32.9064 37.5 31.25C37.5 24.3464 31.9036 18.75 25 18.75C18.0964 18.75 12.5 24.3464 12.5 31.25C12.5 32.9064 12.8229 34.4892 13.4091 35.9375H1.5625C0.699555 35.9375 0 36.6371 0 37.5C0 38.3629 0.699555 39.0625 1.5625 39.0625H48.4375C49.3004 39.0625 50 38.3629 50 37.5C50 36.6371 49.3004 35.9375 48.4375 35.9375H36.5909ZM0 31.25C0 30.3871 0.699555 29.6875 1.5625 29.6875H7.8125C8.67544 29.6875 9.375 30.3871 9.375 31.25C9.375 32.1129 8.67544 32.8125 7.8125 32.8125H1.5625C0.699555 32.8125 0 32.1129 0 31.25ZM40.625 31.25C40.625 30.3871 41.3246 29.6875 42.1875 29.6875H48.4375C49.3004 29.6875 50 30.3871 50 31.25C50 32.1129 49.3004 32.8125 48.4375 32.8125H42.1875C41.3246 32.8125 40.625 32.1129 40.625 31.25Z" fill="black"/>
</svg>
