<svg width="22" height="22" viewBox="0 0 22 22" fill="none" xmlns="http://www.w3.org/2000/svg">
<path fill-rule="evenodd" clip-rule="evenodd" d="M11.0525 1.60416C13.0606 1.60415 14.6379 1.60414 15.8694 1.7697C17.1312 1.93936 18.1325 2.29414 18.9192 3.08082C19.7059 3.86751 20.0606 4.86875 20.2303 6.13067C20.3959 7.36214 20.3959 8.93941 20.3959 10.9476V11.0524C20.3959 13.0606 20.3959 14.6379 20.2303 15.8693C20.0606 17.1312 19.7059 18.1325 18.9192 18.9192C18.1325 19.7058 17.1312 20.0606 15.8694 20.2303C14.6379 20.3958 13.0606 20.3958 11.0525 20.3958H10.9476C8.93944 20.3958 7.36217 20.3958 6.13071 20.2303C4.86878 20.0606 3.86754 19.7058 3.08085 18.9192C2.29418 18.1325 1.93939 17.1312 1.76973 15.8693C1.60417 14.6379 1.60418 13.0606 1.60419 11.0524V10.9476C1.60418 8.93943 1.60417 7.36214 1.76973 6.13067C1.93939 4.86875 2.29418 3.86751 3.08085 3.08082C3.86754 2.29414 4.86878 1.93936 6.13071 1.7697C7.36216 1.60414 8.93944 1.60415 10.9476 1.60416H11.0525ZM15.125 11C15.125 13.2782 13.2782 15.125 11 15.125C8.72185 15.125 6.87502 13.2782 6.87502 11C6.87502 8.72182 8.72185 6.87499 11 6.87499C13.2782 6.87499 15.125 8.72182 15.125 11ZM16.053 6.87499C16.5569 6.87499 16.9655 6.46459 16.9655 5.95832C16.9655 5.45207 16.5569 5.04166 16.053 5.04166H16.0447C15.5407 5.04166 15.1322 5.45207 15.1322 5.95832C15.1322 6.46458 15.5407 6.87499 16.0447 6.87499H16.053Z" fill="white"/>
</svg>
