<svg width="50" height="50" viewBox="0 0 50 50" fill="none" xmlns="http://www.w3.org/2000/svg">
<path d="M32.2904 25.0002C32.2904 29.0272 29.0258 32.2918 24.9987 32.2918C20.9716 32.2918 17.707 29.0272 17.707 25.0002C17.707 20.9731 20.9716 17.7085 24.9987 17.7085C29.0258 17.7085 32.2904 20.9731 32.2904 25.0002Z" stroke="black" stroke-width="3"/>
<path d="M45.8346 29.0979V20.9027C39.8832 20.9027 36.0132 14.4385 39.0263 9.30622L31.8094 5.2087C28.7592 10.4044 21.2467 10.4042 18.1964 5.2085L10.9795 9.30602C13.9927 14.4384 10.1195 20.9027 4.16797 20.9027V29.0979C10.1194 29.0979 13.9893 35.562 10.9762 40.6943L18.1931 44.7918C21.2448 39.5935 28.7609 39.5933 31.8128 44.7916L39.0296 40.6941C36.0167 35.5618 39.8834 29.0979 45.8346 29.0979Z" stroke="black" stroke-width="3" stroke-linecap="round" stroke-linejoin="round"/>
</svg>
