<?xml version="1.0" encoding="UTF-8" standalone="no"?><!DOCTYPE svg PUBLIC "-//W3C//DTD SVG 1.1//EN" "http://www.w3.org/Graphics/SVG/1.1/DTD/svg11.dtd"><svg width="100%" height="100%" viewBox="0 0 2134 2134" version="1.1" xmlns="http://www.w3.org/2000/svg" xmlns:xlink="http://www.w3.org/1999/xlink" xml:space="preserve" xmlns:serif="http://www.serif.com/" style="fill-rule:evenodd;clip-rule:evenodd;stroke-linejoin:round;stroke-miterlimit:2;"><g><path d="M501.041,414.768c14.999,-17.444 13.016,-43.739 -4.428,-58.738l-126.95,-109.148c-17.444,-14.999 -43.743,-13.016 -58.741,4.428c-14.999,17.443 -13.017,43.738 4.427,58.737l126.95,109.148c7.864,6.76 17.523,10.067 27.141,10.067c11.712,0 23.362,-4.914 31.601,-14.494Z" style="fill:#c4d925;fill-rule:nonzero;"/><path d="M2118.55,94.691c-13.412,-32.28 -38.074,-58.562 -69.396,-74.015c-77.872,-38.415 -179.198,-18.585 -252.846,20.992c-8.372,4.499 -18.119,10.538 -32.618,20.243c-50.049,33.646 -127.654,92.6 -172.121,126.834c-128.396,-81.917 -296.54,-118.712 -539.057,-118.712c-230.117,0 -397.582,34.817 -523.403,109.223c-77.243,-59.287 -160.076,-120.36 -192.389,-137.575c-69.046,-36.783 -200.67,-68.026 -280.266,-3.349c-40.265,32.717 -79.713,101.051 -38.999,240.801c47.875,164.312 144.415,303.82 215.173,390.268c-10.9,65.218 -17.469,137.038 -19.447,213.977c-6.527,252.785 45.571,447.569 154.844,578.942c4.94,5.94 9.934,11.621 14.953,17.132c-46.283,112.83 -158.181,445.935 37.582,641.69c7.814,7.81 18.406,12.2 29.456,12.2l1217.18,-0c11.05,-0 21.642,-4.39 29.451,-12.2c201.466,-201.449 77.089,-548.382 33.717,-650.991c2.229,-2.57 4.457,-5.148 6.669,-7.81c109.286,-131.369 161.388,-326.158 154.865,-578.95c-1.695,-66.231 -6.768,-128.741 -15.036,-186.237c9.092,-10.538 18.843,-22.155 29.131,-34.909c6.956,-8.663 10.163,-19.534 8.997,-30.572c-1.208,-11.079 -6.623,-20.992 -15.286,-27.99c-7.373,-5.956 -16.661,-9.247 -26.12,-9.247c-12.662,0 -24.496,5.665 -32.451,15.536c-14.624,18.119 -28.111,33.826 -39.577,46.717c-7.785,8.751 -43.443,45.917 -43.443,45.917c-8.081,7.705 -12.662,18.035 -12.954,29.156c-0.291,11.121 3.79,21.701 11.454,29.739c7.956,8.372 18.66,12.954 30.202,12.954c5.198,0 10.271,-0.979 15.015,-2.816c3.47,36.308 5.773,74.336 6.786,113.893c13.02,504.402 -219.076,614.421 -320.448,650.358c4.561,-61.312 -10.025,-138.984 -59.12,-236.674c-58.687,-116.783 -143.378,-215.576 -167.469,-242.608c-0.621,-0.687 -0.342,-0.446 -0.017,-0.129c-7.497,-47.95 5.102,-80.746 22.13,-101.281c36.753,13.054 70.653,18.656 101.784,18.656c147.43,0 232.75,-125.051 265.142,-172.534c7.023,-10.296 9.068,-23.195 5.569,-35.158c-3.495,-11.962 -12.166,-21.73 -23.633,-26.624c-5.611,-2.39 -138.867,-58.079 -256.15,-5.681c-57.675,25.77 -100.647,72.195 -128.091,138.055c-1.329,1.324 -2.933,2.878 -4.265,4.173c-28.082,27.253 -102.676,99.639 -55.397,239.806c0.016,0.054 0.041,0.104 0.058,0.158c29.015,86.252 7.356,185.737 -9.371,240.318c-36.996,-10.93 -80.538,-8.793 -119.22,12.079c-2.653,1.383 -5.311,2.828 -7.976,4.386c-2.699,-1.583 -5.394,-3.045 -8.081,-4.445c-33.829,-17.618 -77.28,-25.107 -119.145,-12.016c-16.739,-54.63 -38.407,-154.191 -9.292,-240.464c1.445,-4.286 6.918,-23.45 6.931,-23.512c31.868,-124.822 -35.866,-190.623 -62.336,-216.306c-1.333,-1.295 -2.941,-2.853 -4.269,-4.177c-27.445,-65.86 -70.417,-112.281 -128.088,-138.051c-117.283,-52.402 -250.535,3.287 -256.149,5.682c-11.467,4.894 -20.135,14.661 -23.634,26.623c-3.498,11.963 -1.453,24.862 5.569,35.159c32.393,47.487 117.687,172.538 265.138,172.538c31.123,-0 65.039,-5.607 101.789,-18.656c17.044,20.555 30.047,52.989 22.492,101.026c0.375,-0.362 0.691,-0.625 -0.025,0.183c-24.246,27.286 -110.369,127.825 -168.706,244.591c-48.308,96.699 -62.736,173.713 -58.279,234.599c-38.574,-13.732 -99.806,-42.214 -155.153,-94.661c-87.56,-87.831 -172.259,-252.539 -164.441,-555.401c1.212,-47.108 4.249,-92.029 8.964,-134.506c6.726,6.835 10.975,10.909 12.091,11.971c8.06,7.664 18.385,11.467 28.698,11.467c11.009,-0 22.005,-4.34 30.193,-12.95c15.853,-16.669 15.191,-43.034 -1.482,-58.887c-2.037,-1.937 -204.602,-196.65 -277.484,-446.789c-15.419,-52.919 -25.932,-122.394 11.55,-152.85c40.502,-32.909 129.416,-19.28 188.561,12.225c51.24,27.295 294.52,216.802 331.394,249.794c17.148,15.34 43.48,13.878 58.82,-3.27c15.341,-17.144 13.875,-43.476 -3.269,-58.816c-11.484,-10.272 -43.364,-36.154 -83.724,-67.942c109.523,-55.501 255.112,-81.634 451.741,-81.634c209.284,0 356.997,28.157 468.586,90.36c-6.793,5.368 -63.115,50.798 -72.57,59.212c-8.288,7.414 -13.203,17.618 -13.832,28.739c-0.625,11.121 3.124,21.784 10.542,30.073c7.914,8.83 19.243,13.87 31.076,13.87c10.247,-0 20.118,-3.749 27.782,-10.621c8.497,-7.623 32.034,-26.866 59.983,-49.066c48.695,-38.653 106.72,-83.345 155.206,-119.499c28.203,-21.034 108.803,-77.347 116.184,-81.225c48.978,-26.403 139.795,-52.385 188.723,-12.041c41.852,34.521 24.146,108.915 11.38,152.703c-4.166,14.287 -8.872,28.823 -13.995,43.193c-3.749,10.455 -3.208,21.784 1.582,31.822c4.749,10.038 13.162,17.66 23.621,21.409c4.54,1.624 9.247,2.416 13.995,2.416c17.577,-0 33.326,-11.121 39.24,-27.657c5.706,-15.953 10.955,-32.072 15.54,-47.904c16.994,-58.508 27.511,-126.492 2.995,-184.45Zm-708.537,715.38c46.2,-20.792 98.91,-16.914 137.051,-9.188c-51.273,61.54 -117.079,106.995 -212.457,82.829c18.481,-34.971 43.372,-59.221 75.406,-73.641Zm-852.814,-9.184c38.153,-7.722 90.863,-11.596 137.046,9.189c32.035,14.415 56.93,38.669 75.407,73.644c-95.37,24.162 -161.184,-21.292 -212.453,-82.833Zm-114.93,1135.87c-6.356,2.749 -27.044,-7.535 -39.827,-23.033c-2.687,-12.525 -4.798,-25.312 -6.335,-38.316c3.082,-5.589 7.947,-10.246 14.253,-12.953c3.769,-1.621 7.747,-2.429 11.725,-2.429c3.728,0 7.46,0.708 11.025,2.133c7.377,2.945 13.162,8.58 16.294,15.877c9.405,21.909 0.792,55.318 -7.135,58.721Zm1087.56,82.466c-7.701,16.203 -28.906,29.236 -39.206,30.81c-0,-0 -3.924,-0.079 -4.141,-0.167c-6.63,-3.619 -12.583,-34.092 -3.602,-52.968c4.444,-9.355 13.79,-14.832 23.516,-14.832c3.736,-0 7.531,0.808 11.125,2.515c6.269,2.983 11.005,8.227 13.329,14.766c2.324,6.548 1.962,13.603 -1.021,19.876Zm-264.596,-536.282c5.215,-30.76 -4.982,-57.25 -15.211,-74.873c12.52,-34.792 33.933,-105.217 36.045,-184.692c80.933,117.224 176.399,299.605 77.343,402.797c-60.332,62.865 -123.381,88.81 -187.366,77.105c-38.353,-7.014 -67.88,-25.64 -83.274,-37.253c0.929,-3.524 1.395,-7.197 1.395,-10.933c0,-0.042 0.008,-0.08 0.008,-0.121c0,-0.017 -0.004,-0.034 -0.004,-0.05c0,-0.184 0.021,-0.367 0.017,-0.55c1.02,-4.469 11.254,-37.732 94.179,-80.638c44.717,-23.141 70.578,-53.689 76.868,-90.792Zm3.128,298.209c-46.404,71.079 -126.65,116.933 -215.835,116.933c-88.989,0 -169.168,-45.742 -215.623,-116.641c21.938,5.61 42.673,7.83 61.732,7.83c16.09,0 31.002,-1.578 44.43,-4.027c47.454,-8.655 84.953,-29.148 109.053,-45.8c24.062,16.644 61.486,37.099 108.936,45.775c29.618,5.414 66.388,6.577 107.307,-4.07Zm-337.296,-337.183c20.81,-12.937 46.496,-15.269 71.329,-3.215c16.177,6.752 32.238,27.49 54.418,24.145c40.331,-9.525 56.988,-54.072 117.474,-20.109c0.25,0.167 0.5,0.337 0.725,0.491c0.021,0.013 0.038,0.025 0.058,0.042c4.186,5.819 9.464,15.928 7.993,23.912c-1.741,9.443 -13.757,20.564 -32.975,30.502c-46.759,24.191 -77.96,48.382 -98.719,70.416c-20.922,-23.883 -51.952,-49.549 -97.794,-71.112c-18.714,-8.801 -30.489,-18.876 -32.313,-27.644c-1.875,-8.98 5.031,-21.217 9.804,-27.428Zm-182.201,-105.749c20.855,-41.739 45.655,-81.363 69.309,-115.488c2.024,80.471 23.891,151.733 36.391,186.271c-10.651,18.518 -21.313,46.425 -15.103,78.209c4.931,25.229 22.575,60.833 78.647,87.211c65.051,30.601 85.956,69.295 91.787,83.844c0.346,2.77 0.858,5.382 1.571,7.768c-15.457,11.63 -45.055,30.273 -83.337,37.254c-63.973,11.666 -126.979,-14.283 -187.287,-77.123c-59.283,-61.757 -56.58,-158.638 8.022,-287.946Zm-300.25,201.323c65.955,50.103 128.599,71.062 160.675,81.779c5.294,1.771 27.257,10.597 33.955,10.934c10.838,20.33 23.879,37.424 37.478,51.594c13.628,14.199 27.19,26.586 40.623,37.432c36.791,151.65 173.563,260.111 331.181,260.111c158.026,-0 294.898,-108.811 331.385,-260.94c13.099,-10.646 26.32,-22.758 39.602,-36.595c13.596,-14.166 26.628,-31.239 37.462,-51.544c6.964,-0.216 29.46,-9.213 34.758,-10.983c33.597,-11.221 100.714,-33.663 170.06,-89.064c66.23,170.314 95.457,390.172 -16.619,517.768l-41.889,-0c10.471,-25.091 11.238,-52.785 2.066,-78.58c-9.78,-27.507 -29.69,-49.562 -56.055,-62.099c-54.43,-25.874 -119.77,-2.653 -145.652,51.773c-12.391,26.058 -15.728,58.896 -9.68,88.906l-929.928,-0c-8.326,-9.476 -15.844,-19.481 -22.65,-29.918c10.146,-0.517 20.163,-2.691 29.768,-6.815c58.492,-25.12 75.336,-111.01 50.803,-168.135c-11.917,-27.74 -33.925,-49.182 -61.97,-60.37c-22.596,-9.018 -46.929,-10.496 -70.045,-4.503c5.035,-81.437 26.17,-165.64 54.672,-240.751Z" style="fill:#c4d925;fill-rule:nonzero;"/><path d="M2001.71,446.315c-6.415,-3.749 -13.704,-5.748 -21.118,-5.748c-14.707,-0 -28.494,7.83 -35.908,20.492c-11.662,19.785 -5.081,45.359 14.704,57.021c6.414,3.791 13.749,5.79 21.121,5.79c14.703,0 28.452,-7.83 35.908,-20.493l0.042,-0.041c11.616,-19.785 5.035,-45.359 -14.749,-57.021Z" style="fill:#c4d925;fill-rule:nonzero;"/><path d="M1823.99,253.667c-13.691,-18.485 -39.786,-22.367 -58.266,-8.672l-147.327,109.149c-18.485,13.695 -22.367,39.777 -8.671,58.262c8.172,11.029 20.755,16.856 33.5,16.856c8.618,0 17.31,-2.665 24.766,-8.188l147.326,-109.149c18.485,-13.691 22.371,-39.773 8.672,-58.258Z" style="fill:#c4d925;fill-rule:nonzero;"/><circle cx="896.082" cy="291.037" r="41.652" style="fill:#c4d925;"/><circle cx="1024.86" cy="448.893" r="41.652" style="fill:#c4d925;"/><circle cx="937.738" cy="721.941" r="41.652" style="fill:#c4d925;"/><circle cx="1007.56" cy="874.432" r="41.652" style="fill:#c4d925;"/><circle cx="1177.26" cy="732.803" r="41.652" style="fill:#c4d925;"/><circle cx="1218.91" cy="345.959" r="41.652" style="fill:#c4d925;"/><circle cx="517.347" cy="547.791" r="41.652" style="fill:#c4d925;"/><circle cx="405.979" cy="898.677" r="41.652" style="fill:#c4d925;"/><path d="M517.1,1318.06c22.99,-0.46 42.029,17.83 42.489,40.819c0.46,22.988 -17.833,42.025 -40.823,42.484c-22.991,0.46 -42.029,-17.83 -42.489,-40.818c-0.46,-22.988 17.832,-42.025 40.823,-42.485Z" style="fill:#c4d925;"/><circle cx="622.189" cy="1157.59" r="41.652" style="fill:#c4d925;"/><circle cx="536.807" cy="1699.51" r="41.652" style="fill:#c4d925;"/><circle cx="1532.37" cy="1762.99" r="41.652" style="fill:#c4d925;"/><circle cx="656.722" cy="1940.39" r="41.652" style="fill:#c4d925;"/><circle cx="777.092" cy="506.139" r="41.652" style="fill:#c4d925;"/><circle cx="1291.49" cy="541.006" r="41.652" style="fill:#c4d925;"/><circle cx="1615.68" cy="1344.73" r="41.652" style="fill:#c4d925;"/><circle cx="1574.02" cy="582.657" r="41.652" style="fill:#c4d925;"/><circle cx="1447.54" cy="1094.82" r="41.652" style="fill:#c4d925;"/><circle cx="1698.99" cy="990.79" r="41.652" style="fill:#c4d925;"/><circle cx="1616.2" cy="1148.8" r="41.652" style="fill:#c4d925;"/></g></svg>