<svg width="20" height="20" viewBox="0 0 20 20" fill="none" xmlns="http://www.w3.org/2000/svg">
<g opacity="0.5">
<path d="M10.4026 11.6667V2.5M10.4026 11.6667C9.0206 11.6667 7.90033 12.8629 7.90033 13.8542C7.90033 15.3125 9.0206 17.5 10.4026 17.5C11.7845 17.5 12.9048 15.3125 12.9048 13.8542C12.9048 12.8629 11.7845 11.6667 10.4026 11.6667Z" stroke="white" stroke-width="1.5" stroke-linecap="round"/>
<path d="M4.56536 8.35685V17.4999M3.48847 2.6078L2.83624 2.67287C2.36022 2.72036 2.02165 3.1573 2.09487 3.62963L2.65235 7.22591C2.74678 7.83514 3.27168 8.34209 3.88872 8.34209H5.24202C5.85904 8.34209 6.38394 7.83514 6.47838 7.22591L7.03586 3.62963C7.10907 3.1573 6.7705 2.72036 6.29448 2.67287L5.64449 2.60795C4.92761 2.53633 4.20537 2.53629 3.48847 2.6078Z" stroke="white" stroke-width="1.5" stroke-linecap="round"/>
<path d="M15.4133 11.515V2.52148C16.3787 2.78813 17.9846 3.79377 18.2505 6.27355L18.7281 10.0352C18.8119 10.6958 18.6439 11.355 17.9872 11.4679C17.437 11.5625 16.6024 11.5934 15.4133 11.515ZM15.4133 11.515V17.5" stroke="white" stroke-width="1.5" stroke-linecap="round" stroke-linejoin="round"/>
</g>
</svg>
