<svg width="15" height="26" viewBox="0 0 15 26" fill="none" xmlns="http://www.w3.org/2000/svg">
<g clip-path="url(#clip0_213_71)">
<path d="M11.9771 25.6238C12.8043 26.2314 13.9688 26.0552 14.578 25.2303C14.8229 24.8987 14.9407 24.5127 14.9404 24.1302L14.9404 13L6.28046 21.0657C7.70791 22.3018 9.13016 23.4395 10.1919 24.2659C10.7239 24.6799 11.3346 25.1519 11.9771 25.6238Z" fill="#090909"/>
<path d="M2.26948 17.2043C1.70829 16.5709 1.1921 15.9161 0.806127 15.2776C0.451031 14.6901 0.0594765 13.8828 0.0594765 12.9996C0.0594766 12.1165 0.451032 11.309 0.806127 10.7215C1.1921 10.083 1.70829 9.42835 2.26948 8.79486C3.39579 7.52362 4.86212 6.16203 6.28046 4.93382C7.70792 3.69782 9.13016 2.56013 10.1919 1.73353C10.7239 1.31968 11.3346 0.847574 11.9771 0.375656C12.8043 -0.231865 13.9688 -0.0556374 14.578 0.769293C14.8229 1.10097 14.9407 1.48682 14.9404 1.86932L14.9404 11.1448L5.54515 20.4199C4.36695 19.3708 3.20178 18.2566 2.26948 17.2043Z" fill="#090909"/>
</g>
<defs>
<clipPath id="clip0_213_71">
<rect width="15" height="26" fill="white" transform="translate(15 26) rotate(-180)"/>
</clipPath>
</defs>
</svg>
