<svg width="22" height="22" viewBox="0 0 22 22" fill="none" xmlns="http://www.w3.org/2000/svg">
<path fill-rule="evenodd" clip-rule="evenodd" d="M10.945 1.60449H11.0498C13.058 1.60448 14.6353 1.60447 15.8667 1.77003C17.1286 1.9397 18.1299 2.29448 18.9166 3.08116C19.7033 3.86784 20.058 4.86908 20.2277 6.13101C20.3932 7.36248 20.3932 8.93979 20.3932 10.9479V11.0528C20.3932 13.0609 20.3932 14.6382 20.2277 15.8697C20.058 17.1315 19.7033 18.1328 18.9166 18.9195C18.1299 19.7062 17.1286 20.0609 15.8667 20.2306C14.6353 20.3962 13.058 20.3962 11.0498 20.3962H10.945C8.93682 20.3962 7.35955 20.3962 6.12808 20.2306C4.86615 20.0609 3.86491 19.7062 3.07823 18.9195C2.29156 18.1328 1.93677 17.1315 1.7671 15.8697C1.60154 14.6382 1.60155 13.0609 1.60156 11.0528V10.9479C1.60155 8.93976 1.60154 7.36248 1.7671 6.13101C1.93677 4.86908 2.29156 3.86784 3.07823 3.08116C3.86491 2.29448 4.86615 1.9397 6.12808 1.77003C7.35954 1.60447 8.93686 1.60448 10.945 1.60449ZM7.33252 9.62533C7.33252 9.11906 6.92212 8.70866 6.41585 8.70866C5.90959 8.70866 5.49918 9.11906 5.49918 9.62533V15.5837C5.49918 16.0899 5.90959 16.5003 6.41585 16.5003C6.92212 16.5003 7.33252 16.0899 7.33252 15.5837V9.62533ZM10.0826 8.25033C10.4541 8.25033 10.7741 8.47142 10.918 8.78924C11.4753 8.44741 12.1309 8.25033 12.8326 8.25033C14.8576 8.25033 16.4992 9.89198 16.4992 11.917V15.5837C16.4992 16.0899 16.0887 16.5003 15.5826 16.5003C15.0763 16.5003 14.6659 16.0899 14.6659 15.5837V11.917C14.6659 10.9044 13.845 10.0837 12.8326 10.0837C11.82 10.0837 10.9992 10.9044 10.9992 11.917V15.5837C10.9992 16.0899 10.5887 16.5003 10.0826 16.5003C9.57629 16.5003 9.1659 16.0899 9.1659 15.5837V9.16699C9.1659 8.66073 9.57629 8.25033 10.0826 8.25033ZM7.56885 6.41699C7.56885 7.04982 7.05584 7.56283 6.42302 7.56283H6.41478C5.78196 7.56283 5.26894 7.04982 5.26894 6.41699C5.26894 5.78416 5.78196 5.27116 6.41478 5.27116H6.42302C7.05584 5.27116 7.56885 5.78416 7.56885 6.41699Z" fill="white"/>
</svg>
