<?xml version="1.0" encoding="UTF-8" standalone="no"?><!DOCTYPE svg PUBLIC "-//W3C//DTD SVG 1.1//EN" "http://www.w3.org/Graphics/SVG/1.1/DTD/svg11.dtd"><svg width="100%" height="100%" viewBox="0 0 2845 2845" version="1.1" xmlns="http://www.w3.org/2000/svg" xmlns:xlink="http://www.w3.org/1999/xlink" xml:space="preserve" xmlns:serif="http://www.serif.com/" style="fill-rule:evenodd;clip-rule:evenodd;stroke-linecap:round;stroke-linejoin:round;stroke-miterlimit:10;"><g id="g2667"><g id="g2669"><g id="g2671"><g id="g2677"><path id="path2679" d="M1422.22,2316.67c-92.044,-0 -166.666,-74.623 -166.666,-166.667l-0,-111.111c-0,-92.045 74.622,-166.667 166.666,-166.667c92.045,0 166.667,74.622 166.667,166.667l-0,111.111c-0,92.044 -74.622,166.667 -166.667,166.667Z" style="fill:none;fill-rule:nonzero;stroke:#c4d925;stroke-width:166.67px;"/></g><g id="g2681"><path id="path2683" d="M1088.89,2650l-0,111.111l666.667,0l-0,-111.111c-0,-184.094 -149.239,-333.333 -333.334,-333.333c-184.094,-0 -333.333,149.239 -333.333,333.333Z" style="fill:none;fill-rule:nonzero;stroke:#c4d925;stroke-width:166.67px;"/></g><g id="g2685"><path id="path2687" d="M755.556,2316.67c-92.045,-0 -166.667,-74.623 -166.667,-166.667l-0,-111.111c-0,-92.045 74.622,-166.667 166.667,-166.667c92.044,0 166.666,74.622 166.666,166.667l0,111.111c0,92.044 -74.622,166.667 -166.666,166.667Z" style="fill:none;fill-rule:nonzero;stroke:#c4d925;stroke-width:166.67px;"/></g><g id="g2689"><path id="path2691" d="M422.222,2650l0,111.111l666.667,0l-0,-111.111c-0,-184.094 -149.239,-333.333 -333.333,-333.333c-184.095,-0 -333.334,149.239 -333.334,333.333Z" style="fill:none;fill-rule:nonzero;stroke:#c4d925;stroke-width:166.67px;"/></g><g id="g2693"><path id="path2695" d="M2088.89,2316.67c-92.045,-0 -166.667,-74.623 -166.667,-166.667l0,-111.111c0,-92.045 74.622,-166.667 166.667,-166.667c92.044,0 166.666,74.622 166.666,166.667l0,111.111c0,92.044 -74.622,166.667 -166.666,166.667Z" style="fill:none;fill-rule:nonzero;stroke:#c4d925;stroke-width:166.67px;"/></g><g id="g2697"><path id="path2699" d="M1755.56,2650l-0,111.111l666.666,0l0,-111.111c0,-184.094 -149.239,-333.333 -333.333,-333.333c-184.095,-0 -333.333,149.239 -333.333,333.333Z" style="fill:none;fill-rule:nonzero;stroke:#c4d925;stroke-width:166.67px;"/></g><rect id="path2701" x="477.778" y="83.333" width="1888.89" height="1444.44" style="fill:none;fill-rule:nonzero;stroke:#c4d925;stroke-width:166.67px;"/><g id="g2703"><path id="path2705" d="M1422.22,583.333l0,444.445" style="fill:none;fill-rule:nonzero;stroke:#c4d925;stroke-width:166.67px;"/></g><g id="g2707"><path id="path2709" d="M1200,805.556l444.444,-0" style="fill:none;fill-rule:nonzero;stroke:#c4d925;stroke-width:166.67px;"/></g><g id="g2711"><path id="path2713" d="M2761.11,305.556l-394.444,-222.223l-0,1444.44l394.444,222.222l0,-1444.44Z" style="fill:none;fill-rule:nonzero;stroke:#c4d925;stroke-width:166.67px;"/></g><g id="g2715"><path id="path2717" d="M477.778,83.333l-394.445,222.223l0,1444.44l394.445,-222.222l-0,-1444.44Z" style="fill:none;fill-rule:nonzero;stroke:#c4d925;stroke-width:166.67px;"/></g></g></g></g></svg>