<?xml version="1.0" encoding="UTF-8" standalone="no"?><!DOCTYPE svg PUBLIC "-//W3C//DTD SVG 1.1//EN" "http://www.w3.org/Graphics/SVG/1.1/DTD/svg11.dtd"><svg width="100%" height="100%" viewBox="0 0 2134 2134" version="1.1" xmlns="http://www.w3.org/2000/svg" xmlns:xlink="http://www.w3.org/1999/xlink" xml:space="preserve" xmlns:serif="http://www.serif.com/" style="fill-rule:evenodd;clip-rule:evenodd;stroke-linejoin:round;stroke-miterlimit:2;"><g><path d="M1988.33,107c-0.005,-0 -0.011,-0 -0.016,-0c-15.992,-0 -29.15,13.159 -29.15,29.15c-0,0.006 -0,0.011 -0,0.017l-0,328.083c-36.767,26.834 -85.525,31.191 -126.467,11.3c-46.805,-21.178 -76.958,-68.077 -76.8,-119.45l0,-219.883c0,-16.001 -13.166,-29.167 -29.167,-29.167c-16,0 -29.166,13.166 -29.166,29.167l-0,79.3c-23.894,-12.352 -51.216,-16.456 -77.684,-11.667c-86,16.017 -136.766,123.9 -138.883,128.5c-6.701,14.462 -0.353,31.876 14.083,38.633c39.564,20.397 83.082,31.98 127.55,33.95c25.339,0.558 50.331,-6.015 72.117,-18.966c1.667,-1.034 3.067,-2.3 4.667,-3.334c13.482,93.086 93.811,163.054 187.866,163.634c24.734,-0.036 49.2,-5.141 71.884,-15l-0,3.7c0.541,154.268 -81.601,297.551 -215,375.033c-62.832,37.305 -134.231,57.794 -207.284,59.483c10.85,-17.933 16.587,-38.499 16.587,-59.459c0,-60.854 -48.358,-111.689 -109.137,-114.724l0,-46.433c46.14,-7.48 80.386,-47.725 80.386,-94.467c-0,-46.742 -34.246,-86.987 -80.386,-94.467l0,-201.983c-0.106,-34.806 -16.254,-67.687 -43.733,-89.05c-1.438,-1.128 -2.985,-2.11 -4.617,-2.933l-313.35,-159.3c-39.446,-28.816 -93.354,-28.816 -132.8,-0l-313.333,159.233c-1.624,0.828 -3.165,1.81 -4.6,2.933c-27.489,21.357 -43.645,54.241 -43.75,89.05l0,200.834c-50.824,2.301 -91.386,44.743 -91.386,95.618c-0,46.708 34.189,86.935 80.286,94.465l0,24.117c-62.095,-4.16 -122.531,-21.871 -177.05,-51.884c-1.507,-1.111 -3.121,-2.071 -4.817,-2.866c-61.608,-34.929 -113.794,-84.34 -152.033,-143.95c2.633,0.1 5.333,0.35 7.917,0.35c33.252,0.694 65.781,-9.883 92.266,-30c84.784,-65 80.234,-212.284 80,-218.534c-0.755,-15.694 -13.937,-28.166 -29.65,-28.05c-94.183,1.667 -162.116,28.784 -201.883,80.634c-4.949,6.567 -9.406,13.491 -13.333,20.716c-2.756,-19.926 -4.159,-40.017 -4.2,-60.133l-0,-225.033c-0,-16.001 -13.167,-29.167 -29.167,-29.167c-16,0 -29.167,13.166 -29.167,29.167l0,225c-0.287,70.918 14.936,141.049 44.6,205.466c0.392,0.955 0.831,1.89 1.317,2.8c0.317,0.634 0.55,1.3 0.9,1.917l0,0.183c28.643,60.631 69.326,114.805 119.567,159.217c-19.983,4.53 -38.748,13.338 -55,25.817c-84.8,65.083 -80.234,212.316 -80,218.533c0.58,15.592 13.58,28.095 29.183,28.067l0.533,-0c94.184,-1.667 162.117,-28.8 201.884,-80.65c23.065,-31.118 35.909,-68.642 36.75,-107.367c29.946,12.832 61.109,22.615 93.016,29.2c-25.945,21.838 -40.946,54.071 -40.946,87.984c-0,63.087 51.912,115 115,115c0.087,-0 0.175,-0 0.263,-0.001l6.8,0c0.433,1.867 0.733,3.8 1.183,5.667c32.494,134.801 119.693,250.165 240.517,318.2l0,68.85c-14.511,4.311 -28.25,8.489 -41.217,12.533l-1.3,0.417c-6.555,2.044 -12.927,4.061 -19.116,6.05c-6.667,2.156 -13.173,4.278 -19.517,6.367l-1.767,0.6c-15.716,5 -31.15,10.216 -46.15,15.533c-250.333,87.783 -537.583,230.667 -537.583,559.567c0.009,15.997 13.17,29.157 29.167,29.166l1633.33,0c15.997,-0.009 29.158,-13.169 29.167,-29.166c-0,-328.9 -287.25,-471.784 -537.517,-559.534c-15.417,-5.383 -31.533,-10.766 -47.933,-16.15c-7.467,-2.466 -15.217,-5 -23.134,-7.5l-2.3,-0.733c-17.233,-5.483 -35.65,-11.15 -55.766,-17.15l-0,-68.833c120.859,-68.067 208.072,-183.482 240.55,-318.334c0.433,-1.833 0.733,-3.716 1.166,-5.55l6.75,0c7.6,-0.069 15.173,-0.918 22.6,-2.533c22.371,3.376 44.96,5.103 67.584,5.167c65.85,-0.17 130.968,-13.877 191.3,-40.267c-3.125,36.709 7.362,73.314 29.45,102.8c57.65,75.1 179.733,80.1 211.183,80.1c4.067,0 6.667,-0.083 7.333,-0.1c15.899,-0.593 28.525,-14.098 28.05,-30c-3.683,-115.1 -35.35,-191.75 -94.116,-227.817c-12.771,-7.813 -26.708,-13.535 -41.284,-16.95c100.6,-92.879 157.638,-223.915 157.067,-360.833l0,-398.733c0,-16.001 -13.166,-29.167 -29.167,-29.167Zm-324.066,229.2c-25.4,15.583 -65,13.5 -115.55,-5.75c17.9,-27.8 47.65,-62.917 81.833,-69.283c24.215,-2.945 48.479,5.473 65.667,22.783c-2.71,21.165 -14.345,40.193 -31.95,52.25Zm-1425.93,77.517c24.484,-31.667 66.667,-50.317 125.9,-55.8c-3.333,43.6 -16.666,109.816 -56.45,140.35c-23.2,17.816 -54.716,22.266 -93.866,13.333c-4.241,-34.514 4.462,-69.404 24.416,-97.883Zm94.3,451.283c-24.416,31.833 -66.766,50.667 -126.133,56.2c3.333,-43.733 16.833,-110 56.483,-140.417c16.54,-12.176 36.706,-18.436 57.234,-17.766c12.3,0.116 24.548,1.609 36.516,4.45c4.198,34.356 -4.383,69.085 -24.1,97.533Zm1162.53,45.167c-0.012,15.073 -6.01,29.54 -16.667,40.2c-7.167,7.132 -16.128,12.2 -25.933,14.666c-0.147,0.043 -0.292,0.093 -0.434,0.15c-3.586,0.847 -7.249,1.327 -10.933,1.434c1.965,-17.583 2.999,-35.258 3.1,-52.95l0,-59.717c28.696,2.952 50.789,27.37 50.867,56.217Zm-848.734,-552.217c0.069,-15.888 7.075,-30.978 19.167,-41.283l312.917,-159c1.62,-0.828 3.16,-1.804 4.6,-2.917c19.438,-15.02 46.778,-15.02 66.216,0c1.448,1.109 2.994,2.085 4.617,2.917l312.917,159c12.101,10.325 19.103,25.442 19.15,41.35l-0,200.55l-739.584,-0l0,-200.617Zm-91.433,296.45c0.027,-20.562 16.938,-37.473 37.5,-37.5l836.367,0c20.572,0 37.5,16.928 37.5,37.5c-0,20.572 -16.928,37.5 -37.5,37.5l-836.367,0c-20.562,-0.027 -37.473,-16.938 -37.5,-37.5Zm-28.833,255.767c0.075,-28.836 22.15,-53.249 50.833,-56.217l0,59.717c0.056,17.707 1.057,35.399 3,53c-30.011,-1.342 -53.943,-26.459 -53.833,-56.5Zm731.516,761.2l13.134,78.233l-176.017,155.983l159.883,-348.816l14,-30.534l67.55,84.267l-62.333,29.7c-11.715,5.595 -18.358,18.362 -16.217,31.167Zm-510.2,-31.167l-62.35,-29.7l67.567,-84.267l173.867,379.35l-176.017,-155.983l13.15,-78.233c2.142,-12.805 -4.501,-25.572 -16.217,-31.167Zm69.967,-156.867l9.7,-3c7.867,-2.4 15.917,-4.816 24.317,-7.316l1.433,-0.4l56.9,52.583l81.083,75c11.116,10.296 28.501,10.296 39.617,0l108.133,-100.1l29.767,-27.5c18.233,5.383 35.9,10.8 53.333,16.25l-211.05,460.25l-210.966,-460.317l4.283,-1.35l13.45,-4.1Zm314.05,-56.116l-29.533,27.333l-91.3,84.4l-62.767,-58.033l-58.067,-53.734l0,-50c6.967,2.817 13.917,5.734 20.95,8.234l90.184,31.833c6.28,2.221 13.136,2.221 19.416,-0l90.184,-31.85c7.033,-2.483 13.966,-5.4 20.933,-8.217l0,50.034Zm-458.567,105.266l-56.266,70.25c-4.154,5.176 -6.419,11.618 -6.419,18.254c0,11.228 6.483,21.499 16.619,26.33l75.65,36.016l-12.167,72.467c-1.664,9.907 1.901,20.001 9.417,26.667l234.033,207.533l-439.4,-0l0,-115.85c0,-16 -13.166,-29.167 -29.167,-29.167c-16,0 -29.166,13.167 -29.166,29.167l-0,115.85l-212.067,-0c11.667,-204.033 148.533,-343.517 448.933,-457.517Zm1124.43,457.517l-212.05,-0l-0,-115.85c-0,-16 -13.167,-29.167 -29.167,-29.167c-16,0 -29.167,13.167 -29.167,29.167l0,115.85l-439.416,-0l234.1,-207.483c7.522,-6.662 11.093,-16.757 9.433,-26.667l-12.25,-72.517l75.733,-36.083c10.136,-4.83 16.619,-15.102 16.619,-26.329c-0,-6.637 -2.265,-13.078 -6.419,-18.254l-56.35,-70.267c300.384,114.05 437.267,253.533 448.934,457.6Zm-650,-683.9c-18.187,9.326 -36.972,17.432 -56.234,24.267l-80.45,28.333l-80.433,-28.333c-19.238,-6.832 -38.002,-14.933 -56.167,-24.25c-113.712,-58.777 -196.398,-164.22 -226.366,-288.667c-2.05,-8.633 -3.917,-17.4 -5.517,-26.467c-4.573,-25.518 -6.871,-51.392 -6.867,-77.316l0,-163.434l750.667,0l0,163.434c0.014,21.658 -1.563,43.289 -4.717,64.716c-0.6,4.267 -1.366,8.334 -2.166,12.734c-1.584,8.95 -3.467,17.716 -5.467,26.216c-29.944,124.451 -112.605,229.911 -226.3,288.717l0.017,0.05Zm788.333,-194.633c-43.617,-3.334 -109.7,-16.667 -140.183,-56.434c-18.467,-24.066 -22.6,-57.05 -12.334,-98.216c28.694,-11.257 60.954,-9.216 88,5.566c35.784,21.9 57.867,73.15 64.534,149.034l-0.017,0.05Z" style="fill:#c4d925;fill-rule:nonzero;"/><path d="M1049.45,1152.83c-21.916,19.766 -55.617,19.766 -77.533,0c-4.996,-3.645 -11.024,-5.611 -17.209,-5.611c-16.015,0 -29.194,13.179 -29.194,29.195c0,9.316 4.46,18.091 11.986,23.583c42.354,34.864 104.029,34.864 146.383,0c7.508,-5.489 11.956,-14.25 11.956,-23.55c-0,-16.003 -13.169,-29.172 -29.172,-29.172c-6.189,-0 -12.221,1.969 -17.217,5.622l0,-0.067Z" style="fill:#c4d925;fill-rule:nonzero;"/><path d="M852.467,816.133c-16.001,0 -29.167,13.167 -29.167,29.167l0,48.483c0,16.001 13.166,29.167 29.167,29.167c16,0 29.166,-13.166 29.166,-29.167c0,0 0,-48.494 0,-48.5c0,-15.991 -13.158,-29.15 -29.15,-29.15c-0.005,0 -0.011,0 -0.016,0Z" style="fill:#c4d925;fill-rule:nonzero;"/><path d="M1168.9,816.133c-16,0 -29.167,13.167 -29.167,29.167l0,48.483c0,16.001 13.167,29.167 29.167,29.167c16,0 29.167,-13.166 29.167,-29.167c-0,0 -0,-48.494 -0,-48.5c-0,-15.991 -13.159,-29.15 -29.15,-29.15c-0.006,0 -0.011,0 -0.017,0Z" style="fill:#c4d925;fill-rule:nonzero;"/></g></svg>