<?xml version="1.0" encoding="UTF-8" standalone="no"?><!DOCTYPE svg PUBLIC "-//W3C//DTD SVG 1.1//EN" "http://www.w3.org/Graphics/SVG/1.1/DTD/svg11.dtd"><svg width="100%" height="100%" viewBox="0 0 267 267" version="1.1" xmlns="http://www.w3.org/2000/svg" xmlns:xlink="http://www.w3.org/1999/xlink" xml:space="preserve" xmlns:serif="http://www.serif.com/" style="fill-rule:evenodd;clip-rule:evenodd;stroke-linejoin:round;stroke-miterlimit:2;"><g><path d="M153.471,65l-4.342,25.333c-0.04,0.233 -0.06,0.468 -0.06,0.704c0,2.286 1.881,4.167 4.167,4.167c0.676,-0 1.341,-0.165 1.939,-0.479l22.742,-11.954l22.741,11.954c0.598,0.314 1.264,0.479 1.939,0.479c2.286,-0 4.167,-1.881 4.167,-4.167c0,-0.236 -0.02,-0.471 -0.06,-0.704l-4.341,-25.333l18.395,-17.917c0.806,-0.784 1.26,-1.861 1.26,-2.985c0,-2.059 -1.526,-3.825 -3.564,-4.123l-25.416,-3.696l-11.371,-23.042c-0.781,-1.319 -2.204,-2.132 -3.738,-2.132c-1.533,0 -2.957,0.813 -3.737,2.133l-11.379,23.037l-25.417,3.696c-2.039,0.296 -3.568,2.063 -3.568,4.123c-0,1.124 0.455,2.201 1.26,2.985l18.383,17.921Zm12.708,-20.804c1.356,-0.197 2.531,-1.051 3.138,-2.279l8.6,-17.421l8.608,17.433c0.606,1.228 1.779,2.081 3.133,2.279l19.242,2.796l-13.925,13.567c-0.98,0.957 -1.428,2.338 -1.196,3.687l3.284,19.167l-17.205,-9.05c-1.213,-0.638 -2.666,-0.638 -3.879,0l-17.229,9.046l3.288,-19.167c0.231,-1.35 -0.219,-2.731 -1.2,-3.687l-13.921,-13.567l19.262,-2.804Z" style="fill:#c4d925;fill-rule:nonzero;"/><path d="M252.863,156.192l-50.159,-0c12.893,-13.36 21.171,-30.507 23.613,-48.913c0.024,-0.183 0.036,-0.368 0.036,-0.553c0,-2.285 -1.88,-4.166 -4.166,-4.166c-0.952,-0 -1.875,0.326 -2.616,0.923c-11.153,8.959 -25.037,13.845 -39.342,13.845c-34.463,0 -62.821,-28.358 -62.821,-62.821c-0,-14.326 4.901,-28.23 13.884,-39.39c0.597,-0.741 0.923,-1.664 0.923,-2.616c-0,-2.285 -1.881,-4.166 -4.167,-4.166c-0.183,-0 -0.366,0.012 -0.548,0.036c-43.381,5.87 -76.093,43.307 -76.092,87.083c-0.032,22.65 8.765,44.445 24.513,60.725l-62.117,0c-2.286,0 -4.166,1.881 -4.166,4.167l-0,45.292c0.004,12.213 10.048,22.265 22.262,22.279l3.575,-0c3.043,17.522 18.399,30.44 36.183,30.44c17.785,0 33.14,-12.918 36.184,-30.44l52.858,-0c3.043,17.522 18.399,30.44 36.183,30.44c17.785,0 33.14,-12.918 36.184,-30.44l1.7,-0c12.206,-0.014 22.246,-10.053 22.262,-22.259l0,-45.3c0,-2.285 -1.881,-4.166 -4.166,-4.166Zm-169.805,-4.525c-14.928,-14.905 -23.325,-35.156 -23.325,-56.25c0,-21.095 8.397,-41.346 23.325,-56.25c9.866,-9.923 22.203,-17.035 35.734,-20.6c-6.373,10.9 -9.732,23.301 -9.732,35.928c-0,39.05 32.133,71.183 71.183,71.183c12.606,-0 24.99,-3.349 35.878,-9.703c-3.564,13.499 -10.655,25.81 -20.542,35.667c-1.766,1.729 -3.408,3.2 -5,4.55l-102.575,-0c-1.616,-1.388 -3.271,-2.884 -4.946,-4.525Zm-11.391,98.333c-14.732,-0.014 -27.141,-11.467 -28.334,-26.15c0,-0.042 0.025,-0.079 0.025,-0.121c0,-0.041 -0.037,-0.133 -0.041,-0.204c-0.046,-0.65 -0.1,-1.3 -0.1,-1.958c-0,-15.598 12.835,-28.434 28.433,-28.434c15.598,0 28.433,12.836 28.433,28.434c0,0.679 -0.054,1.346 -0.1,2.012c0,0.05 -0.029,0.096 -0.029,0.15l0,0.088c-1.175,14.679 -13.561,26.144 -28.287,26.183Zm125.225,0c-14.734,-0.017 -27.143,-11.473 -28.334,-26.158c0.011,-0.037 0.019,-0.075 0.025,-0.113c0,-0.066 -0.033,-0.125 -0.037,-0.191c-0.046,-0.655 -0.1,-1.305 -0.1,-1.971c-0,-15.598 12.835,-28.434 28.433,-28.434c15.598,0 28.434,12.836 28.434,28.434c-0,0.675 -0.055,1.333 -0.1,2c-0,0.054 -0.034,0.104 -0.034,0.162c0,0.059 0.021,0.063 0.021,0.096c-1.182,14.686 -13.583,26.149 -28.317,26.175l0.009,0Zm51.804,-44.362c-0,7.644 -6.285,13.936 -13.929,13.945l-1.217,0c-1.053,-19.364 -17.274,-34.727 -36.667,-34.727c-19.393,0 -35.613,15.363 -36.666,34.727l-51.884,0c-1.053,-19.364 -17.273,-34.727 -36.666,-34.727c-19.393,0 -35.614,15.363 -36.667,34.727l-3.1,0c-7.636,-0.009 -13.918,-6.288 -13.929,-13.925l-0,-41.133l230.725,0l-0,41.113Z" style="fill:#c4d925;fill-rule:nonzero;"/></g></svg>