<?xml version="1.0" encoding="UTF-8" standalone="no"?><!DOCTYPE svg PUBLIC "-//W3C//DTD SVG 1.1//EN" "http://www.w3.org/Graphics/SVG/1.1/DTD/svg11.dtd"><svg width="100%" height="100%" viewBox="0 0 267 267" version="1.1" xmlns="http://www.w3.org/2000/svg" xmlns:xlink="http://www.w3.org/1999/xlink" xml:space="preserve" xmlns:serif="http://www.serif.com/" style="fill-rule:evenodd;clip-rule:evenodd;stroke-linejoin:round;stroke-miterlimit:2;"><g><path d="M254.167,203.45l-12.825,0l-0,-120.417c-0,-2.285 -1.881,-4.166 -4.167,-4.166l-47.854,-0l-0,-20.534c-0,-9.143 -7.524,-16.666 -16.667,-16.666l-4.637,-0c-3.84,0.008 -7.209,-2.645 -8.1,-6.38l-0.259,-1.07c-1.772,-7.48 -8.517,-12.8 -16.204,-12.78l-20.242,0c-7.686,-0.02 -14.431,5.3 -16.204,12.78l-0.258,1.07c-0.891,3.735 -4.261,6.388 -8.1,6.38l-4.638,-0c-9.143,-0 -16.666,7.523 -16.666,16.666l-0,20.509l-47.854,-0c-2.286,-0 -4.167,1.881 -4.167,4.166l-0,120.417l-12.825,0c-2.286,0 -4.167,1.881 -4.167,4.167l0,11.058c0.016,14.561 11.993,26.538 26.554,26.554l196.892,0c14.552,-0.016 26.525,-11.977 26.554,-26.529l0,-11.058c0,-2.286 -1.881,-4.167 -4.166,-4.167Zm-168.488,-145.117c0,-4.571 3.762,-8.333 8.333,-8.333l4.638,-0c7.686,0.015 14.428,-5.302 16.204,-12.779l0.258,-1.071c0.884,-3.741 4.257,-6.402 8.1,-6.392l20.242,0c3.844,-0.01 7.216,2.651 8.1,6.392l0.258,1.071c1.777,7.477 8.519,12.794 16.205,12.779l4.637,-0c4.572,-0 8.333,3.762 8.333,8.333l0,55.25c0,4.572 -3.761,8.334 -8.333,8.334l-78.642,-0c-4.571,-0 -8.333,-3.762 -8.333,-8.334l0,-55.25Zm-52.021,28.85l43.688,0l-0,26.409c-0,9.143 7.523,16.666 16.666,16.666l78.642,0c9.143,0 16.667,-7.523 16.667,-16.666l-0,-26.409l43.687,0l0,116.25l-199.35,0l0,-116.25Zm216.342,131.492c-0.011,9.991 -8.229,18.209 -18.221,18.221l-196.892,-0c-9.991,-0.012 -18.209,-8.23 -18.22,-18.221l-0,-6.892l233.333,0l-0,6.892Z" style="fill:#c4d925;fill-rule:nonzero;"/><path d="M133.333,114.067c15.962,-0 29.096,-13.135 29.096,-29.096c0,-15.962 -13.134,-29.096 -29.096,-29.096c-15.961,0 -29.096,13.134 -29.096,29.096c0,0.001 0,0.003 0.001,0.004c0.018,15.954 13.141,29.076 29.095,29.092Zm0,-49.859c11.39,0 20.763,9.373 20.763,20.763c-0,11.39 -9.373,20.762 -20.763,20.762c-11.388,0 -20.76,-9.37 -20.762,-20.758c0.011,-11.386 9.376,-20.753 20.762,-20.767Z" style="fill:#c4d925;fill-rule:nonzero;"/><path d="M38.546,220.175l-6.346,0c-2.286,0 -4.167,1.881 -4.167,4.167c0,2.285 1.881,4.166 4.167,4.166l6.346,0c2.286,0 4.166,-1.881 4.166,-4.166c0,-2.286 -1.88,-4.167 -4.166,-4.167Z" style="fill:#c4d925;fill-rule:nonzero;"/><path d="M63.929,220.175l-6.35,0c-2.286,0 -4.166,1.881 -4.166,4.167c-0,2.285 1.88,4.166 4.166,4.166l6.35,0c2.286,0 4.167,-1.881 4.167,-4.166c-0,-2.286 -1.881,-4.167 -4.167,-4.167Z" style="fill:#c4d925;fill-rule:nonzero;"/><path d="M89.313,220.175l-6.35,0c-2.286,0 -4.167,1.881 -4.167,4.167c-0,2.285 1.881,4.166 4.166,4.166l6.351,0c2.285,0 4.166,-1.881 4.166,-4.166c0,-2.286 -1.881,-4.167 -4.166,-4.167Z" style="fill:#c4d925;fill-rule:nonzero;"/><path d="M54.671,155.613l12.162,-0c2.286,-0 4.167,-1.881 4.167,-4.167c0,-2.286 -1.881,-4.167 -4.167,-4.167l-12.162,0c-2.286,0 -4.167,1.881 -4.167,4.167c0,2.286 1.881,4.167 4.167,4.167Z" style="fill:#c4d925;fill-rule:nonzero;"/><path d="M113.9,162.283l-59.229,0c-2.286,0 -4.167,1.881 -4.167,4.167c0,2.286 1.881,4.167 4.167,4.167l59.229,-0c2.286,-0 4.167,-1.881 4.167,-4.167c-0,-2.286 -1.881,-4.167 -4.167,-4.167Z" style="fill:#c4d925;fill-rule:nonzero;"/><path d="M70,180.067l-15.329,-0c-2.286,-0 -4.167,1.881 -4.167,4.166c0,2.286 1.881,4.167 4.167,4.167l15.329,0c2.286,0 4.167,-1.881 4.167,-4.167c-0,-2.285 -1.881,-4.166 -4.167,-4.166Z" style="fill:#c4d925;fill-rule:nonzero;"/><path d="M113.9,180.067l-26.442,-0c-2.285,-0 -4.166,1.881 -4.166,4.166c-0,2.286 1.881,4.167 4.166,4.167l26.442,0c2.286,0 4.167,-1.881 4.167,-4.167c-0,-2.285 -1.881,-4.166 -4.167,-4.166Z" style="fill:#c4d925;fill-rule:nonzero;"/><path d="M212.258,148.6l-38.604,0c-2.286,0 -4.166,1.881 -4.166,4.167l-0,38.604c-0,2.286 1.88,4.167 4.166,4.167l38.604,-0c2.286,-0 4.167,-1.881 4.167,-4.167l0,-38.604c0,-2.286 -1.881,-4.167 -4.167,-4.167Zm-4.166,38.604l-30.271,0l-0,-30.271l30.271,0l-0,30.271Z" style="fill:#c4d925;fill-rule:nonzero;"/></g></svg>