<svg width="52" height="50" viewBox="0 0 52 50" fill="none" xmlns="http://www.w3.org/2000/svg">
<path fill-rule="evenodd" clip-rule="evenodd" d="M33.0151 19.2076C33.6378 19.8178 33.6378 20.8072 33.0151 21.4174L23.4488 30.7924C23.1498 31.0854 22.7443 31.25 22.3214 31.25C21.8985 31.25 21.493 31.0854 21.194 30.7924L16.4108 26.1049C15.7882 25.4947 15.7882 24.5053 16.4108 23.8951C17.0335 23.285 18.043 23.285 18.6656 23.8951L22.3214 27.4778L30.7603 19.2076C31.383 18.5975 32.3925 18.5975 33.0151 19.2076Z" fill="black"/>
<path d="M32.7581 7.85208L29.8211 4.90448L32.1026 2.72124L34.0855 4.71136L36.9236 4.67823C42.0979 4.61783 46.3083 8.74403 46.2467 13.8149L46.2129 16.5962L48.2436 18.5394C51.946 22.0823 51.946 27.9177 48.2436 31.4606L46.2129 33.4038L46.2467 36.1852C46.3083 41.256 42.0979 45.3822 36.9236 45.3218L34.0855 45.2886L32.1026 47.2788C28.4874 50.9071 22.533 50.9071 18.9178 47.2788L16.9349 45.2886L14.0968 45.3218C8.92248 45.3822 4.71207 41.256 4.7737 36.1852L4.80751 33.4038L2.77678 31.4606C-0.925593 27.9177 -0.925593 22.0823 2.77678 18.5394L4.80751 16.5962L4.7737 13.8149C4.71207 8.74403 8.92247 4.61783 14.0968 4.67823L16.9349 4.71136L18.9178 2.72124C22.533 -0.907082 28.4874 -0.907081 32.1026 2.72124L29.8211 4.90448C27.4571 2.53184 23.5633 2.53184 21.1993 4.90448L18.2623 7.85208L14.0588 7.80301C10.6752 7.76351 7.92195 10.4617 7.96225 13.7776L8.01232 17.8971L5.00457 20.7753C2.58351 23.0921 2.58351 26.9079 5.00457 29.2247L8.01232 32.1029L7.96225 36.2224C7.92195 39.5383 10.6752 42.2365 14.0588 42.197L18.2623 42.1479L21.1993 45.0955C23.5633 47.4682 27.4571 47.4682 29.8211 45.0955L32.7581 42.1479L36.9616 42.197C40.3452 42.2365 43.0985 39.5383 43.0582 36.2224L43.0081 32.1029L46.0158 29.2247C48.4369 26.9079 48.4369 23.0921 46.0158 20.7753L43.0081 17.8971L43.0582 13.7776C43.0985 10.4617 40.3452 7.76351 36.9616 7.80301L32.7581 7.85208Z" fill="black"/>
</svg>
