<svg width="15" height="26" viewBox="0 0 15 26" fill="none" xmlns="http://www.w3.org/2000/svg">
<g clip-path="url(#clip0_3803_1040)">
<path d="M3.02578 25.6238C2.1986 26.2314 1.03417 26.0552 0.424964 25.2303C0.180061 24.8987 0.0621843 24.5127 0.0624998 24.1302L0.0624989 13L8.72247 21.0657C7.29502 22.3018 5.87277 23.4395 4.81101 24.2659C4.27902 24.6799 3.66828 25.1519 3.02578 25.6238Z" fill="#090909"/>
<path d="M12.7334 17.2043C13.2946 16.5709 13.8108 15.9161 14.1968 15.2776C14.5519 14.6901 14.9435 13.8828 14.9435 12.9996C14.9435 12.1165 14.5519 11.309 14.1968 10.7215C13.8108 10.083 13.2946 9.42835 12.7334 8.79486C11.6071 7.52362 10.1408 6.16203 8.72247 4.93382C7.29501 3.69782 5.87277 2.56013 4.81101 1.73353C4.27902 1.31968 3.66828 0.847573 3.0258 0.375656C2.1986 -0.231864 1.03417 -0.0556368 0.424962 0.769292C0.180059 1.10097 0.0621813 1.48682 0.0625161 1.86932L0.0624992 11.1448L9.45778 20.4199C10.636 19.3708 11.8012 18.2566 12.7334 17.2043Z" fill="#090909"/>
</g>
<defs>
<clipPath id="clip0_3803_1040">
<rect width="15" height="26" fill="white" transform="matrix(1 -8.74228e-08 -8.74228e-08 -1 0 26)"/>
</clipPath>
</defs>
</svg>
