<svg width="20" height="20" viewBox="0 0 20 20" fill="none" xmlns="http://www.w3.org/2000/svg">
<g opacity="0.5" clip-path="url(#clip0_67_371)">
<path d="M12.5002 14.1665C11.8339 14.6852 10.9587 14.9998 10.0002 14.9998C9.04159 14.9998 8.16643 14.6852 7.50015 14.1665" stroke="#EEEAEA" stroke-width="1.5" stroke-linecap="round"/>
<path d="M1.95963 11.0111C1.66545 9.09667 1.51836 8.13953 1.88028 7.29099C2.2422 6.44244 3.04517 5.86186 4.65109 4.70072L5.85097 3.83317C7.84872 2.38873 8.84758 1.6665 10.0002 1.6665C11.1527 1.6665 12.1516 2.38873 14.1493 3.83317L15.3492 4.70072C16.9552 5.86186 17.7581 6.44244 18.12 7.29099C18.4819 8.13953 18.3348 9.09667 18.0407 11.0111L17.7898 12.6435C17.3727 15.3573 17.1642 16.7142 16.191 17.5237C15.2177 18.3332 13.7948 18.3332 10.9492 18.3332H9.05116C6.20543 18.3332 4.78257 18.3332 3.80931 17.5237C2.83605 16.7142 2.62753 15.3573 2.2105 12.6435L1.95963 11.0111Z" stroke="#EEEAEA" stroke-width="1.5" stroke-linejoin="round"/>
</g>
<defs>
<clipPath id="clip0_67_371">
<rect width="20" height="20" fill="white"/>
</clipPath>
</defs>
</svg>
