<svg width="20" height="20" viewBox="0 0 20 20" fill="none" xmlns="http://www.w3.org/2000/svg">
<g opacity="0.5">
<path d="M14.1667 3.33317H17.5M14.1667 3.33317C14.1667 3.79999 15.4119 4.67215 15.8334 4.99984M14.1667 3.33317C14.1667 2.86635 15.4119 1.99419 15.8334 1.6665" stroke="#EEEAEA" stroke-width="1.5" stroke-linecap="round" stroke-linejoin="round"/>
<path d="M5.83333 3.33317H2.5M5.83333 3.33317C5.83333 2.86635 4.58808 1.99419 4.16667 1.6665M5.83333 3.33317C5.83333 3.79999 4.58808 4.67215 4.16667 4.99984" stroke="#EEEAEA" stroke-width="1.5" stroke-linecap="round" stroke-linejoin="round"/>
<path d="M8.19568 18.3332V17.5426C8.19568 17.0047 8.02177 16.4811 7.69972 16.0494L4.65173 11.9637C4.3002 11.4924 4.01943 10.9078 4.25152 10.3681C4.62722 9.49442 5.68717 8.92684 6.98455 10.2368L8.31556 11.6613V2.97531C8.36243 1.27269 11.1024 1.18829 11.2196 2.97531V7.92534C12.4529 7.76606 18.2629 8.63559 17.4161 12.3191C17.3759 12.4941 17.3357 12.6718 17.2964 12.8469C17.1251 13.6126 16.6185 14.9771 16.0599 15.7748C15.4784 16.6053 15.6836 17.4325 15.6836 18.3332" stroke="#EEEAEA" stroke-width="1.5" stroke-linecap="round" stroke-linejoin="round"/>
</g>
</svg>
