<?xml version="1.0" encoding="UTF-8" standalone="no"?><!DOCTYPE svg PUBLIC "-//W3C//DTD SVG 1.1//EN" "http://www.w3.org/Graphics/SVG/1.1/DTD/svg11.dtd"><svg width="100%" height="100%" viewBox="0 0 209 209" version="1.1" xmlns="http://www.w3.org/2000/svg" xmlns:xlink="http://www.w3.org/1999/xlink" xml:space="preserve" xmlns:serif="http://www.serif.com/" style="fill-rule:evenodd;clip-rule:evenodd;stroke-linejoin:round;stroke-miterlimit:2;"><path d="M203.567,94.708c4.096,-3.991 5.541,-9.85 3.775,-15.295c-1.771,-5.446 -6.384,-9.334 -12.05,-10.159l-50.384,-7.321c-2.146,-0.312 -4,-1.658 -4.958,-3.604l-22.525,-45.65c-2.529,-5.129 -7.663,-8.316 -13.383,-8.316c-5.717,-0 -10.85,3.187 -13.38,8.316l-22.529,45.654c-0.958,1.946 -2.816,3.292 -4.962,3.605l-50.384,7.32c-5.662,0.821 -10.279,4.713 -12.05,10.159c-1.766,5.445 -0.32,11.304 3.775,15.296l36.455,35.533c1.554,1.517 2.266,3.7 1.9,5.833l-8.6,50.175c-0.763,4.417 0.395,8.713 3.254,12.1c4.441,5.279 12.196,6.888 18.396,3.629l45.058,-23.691c1.883,-0.988 4.254,-0.979 6.133,-0l45.063,23.691c2.192,1.155 4.529,1.738 6.941,1.738c4.405,-0 8.58,-1.958 11.45,-5.367c2.863,-3.387 4.017,-7.691 3.255,-12.1l-8.605,-50.175c-0.366,-2.137 0.346,-4.316 1.9,-5.833l36.455,-35.538Z" style="fill:#c4d925;fill-rule:nonzero;"/></svg>