<?xml version="1.0" encoding="UTF-8" standalone="no"?><!DOCTYPE svg PUBLIC "-//W3C//DTD SVG 1.1//EN" "http://www.w3.org/Graphics/SVG/1.1/DTD/svg11.dtd"><svg width="100%" height="100%" viewBox="0 0 2134 2134" version="1.1" xmlns="http://www.w3.org/2000/svg" xmlns:xlink="http://www.w3.org/1999/xlink" xml:space="preserve" xmlns:serif="http://www.serif.com/" style="fill-rule:evenodd;clip-rule:evenodd;stroke-linejoin:round;stroke-miterlimit:2;"><g><path d="M2092.52,1487.37l-19.825,-7.354c-115.017,-42.688 -241.534,-89.646 -371.996,-110.505c5.054,-32.554 7.638,-65.641 7.638,-98.537c-0,-353.817 -287.851,-641.667 -641.667,-641.667c-353.817,0 -641.667,287.85 -641.667,641.667c0,32.779 2.571,65.758 7.592,98.183c-133.438,20.85 -261.454,69.088 -386.259,116.13l-5.854,2.204c-32.3,12.171 -48.616,48.225 -36.441,80.525c12.17,32.3 48.225,48.616 80.525,36.441l5.858,-2.208c162.054,-61.083 315.112,-118.779 474.171,-118.779c74.779,-0 149.629,28.387 228.875,58.437c86.287,32.725 175.512,66.563 273.196,66.563c97.683,-0 186.908,-33.838 273.196,-66.563c79.245,-30.054 154.095,-58.437 228.875,-58.437c154.05,-0 309.816,57.812 460.458,113.725l19.904,7.383c7.158,2.65 14.492,3.909 21.7,3.909c25.4,-0.001 49.279,-15.596 58.617,-40.809c11.991,-32.362 -4.53,-68.321 -36.896,-80.308Zm-796.984,-62.333c-79.245,30.054 -154.091,58.437 -228.87,58.437c-74.78,0 -149.63,-28.387 -228.871,-58.437c-86.288,-32.725 -175.517,-66.563 -273.2,-66.563c-2.404,0 -4.8,0.058 -7.2,0.079c-0.075,-0.525 -0.096,-1.041 -0.184,-1.566c-4.783,-28.334 -7.208,-57.275 -7.208,-86.013c0,-284.892 231.775,-516.667 516.667,-516.667c284.891,0 516.666,231.775 516.666,516.667c0,29.263 -2.52,58.725 -7.479,87.579c-2.371,-0.025 -4.741,-0.079 -7.112,-0.079c-97.692,0 -186.917,33.838 -273.209,66.563Z" style="fill:#c4d925;fill-rule:nonzero;"/><path d="M62.5,1333.48l129.167,0c34.516,0 62.5,-27.983 62.5,-62.5c-0,-34.517 -27.984,-62.5 -62.5,-62.5l-129.167,0c-34.517,0 -62.5,27.983 -62.5,62.5c0,34.517 27.983,62.5 62.5,62.5Z" style="fill:#c4d925;fill-rule:nonzero;"/><path d="M165.783,823.017l111.863,64.583c9.841,5.683 20.587,8.383 31.191,8.383c21.601,0 42.609,-11.208 54.184,-31.258c17.258,-29.892 7.017,-68.117 -22.875,-85.375l-111.863,-64.583c-29.9,-17.267 -68.116,-7.017 -85.375,22.875c-17.258,29.891 -7.016,68.116 22.875,85.375Z" style="fill:#c4d925;fill-rule:nonzero;"/><path d="M575.042,544.454c11.575,20.05 32.583,31.259 54.183,31.259c10.6,-0 21.35,-2.7 31.192,-8.384c29.891,-17.258 40.133,-55.479 22.875,-85.375l-64.584,-111.862c-17.258,-29.888 -55.475,-40.138 -85.375,-22.875c-29.891,17.258 -40.133,55.479 -22.875,85.375l64.584,111.862Z" style="fill:#c4d925;fill-rule:nonzero;"/><path d="M1066.67,458.479c34.516,0 62.5,-27.983 62.5,-62.5l-0,-129.166c-0,-34.517 -27.984,-62.5 -62.5,-62.5c-34.517,-0 -62.5,27.983 -62.5,62.5l-0,129.166c-0,34.517 27.983,62.5 62.5,62.5Z" style="fill:#c4d925;fill-rule:nonzero;"/><path d="M1472.92,567.333c9.841,5.684 20.587,8.384 31.191,8.384c21.6,-0 42.609,-11.209 54.184,-31.259l64.583,-111.862c17.258,-29.892 7.017,-68.117 -22.875,-85.375c-29.9,-17.263 -68.121,-7.017 -85.375,22.875l-64.583,111.862c-17.259,29.892 -7.017,68.113 22.875,85.375Z" style="fill:#c4d925;fill-rule:nonzero;"/><path d="M1824.5,895.988c10.6,-0 21.35,-2.7 31.192,-8.384l111.862,-64.583c29.892,-17.259 40.133,-55.484 22.875,-85.375c-17.258,-29.892 -55.479,-40.138 -85.375,-22.875l-111.862,64.583c-29.892,17.258 -40.134,55.483 -22.875,85.375c11.575,20.05 32.583,31.259 54.183,31.259Z" style="fill:#c4d925;fill-rule:nonzero;"/><path d="M1879.17,1270.98c-0,34.517 27.983,62.5 62.5,62.5l129.166,0c34.517,0 62.5,-27.983 62.5,-62.5c0,-34.516 -27.983,-62.5 -62.5,-62.5l-129.166,0c-34.517,0 -62.5,27.979 -62.5,62.5Z" style="fill:#c4d925;fill-rule:nonzero;"/><path d="M1747.25,1808.1l-1.488,-0.567c-90.795,-34.587 -228,-86.862 -349.929,-86.862c-67.058,-0 -127.979,23.275 -186.891,45.783c-50.542,19.313 -98.284,37.55 -142.275,37.55c-43.992,0 -91.734,-18.237 -142.275,-37.55c-58.913,-22.508 -119.83,-45.783 -186.892,-45.783c-104.675,-0 -172.142,23.958 -283.925,63.65c-20.021,7.108 -41.75,14.825 -65.712,23.133c-32.613,11.304 -49.888,46.909 -38.58,79.521c8.954,25.838 33.159,42.046 59.05,42.046c6.788,-0 13.7,-1.117 20.475,-3.467c24.288,-8.421 46.309,-16.237 66.596,-23.441c109.146,-38.755 158.959,-56.442 242.1,-56.442c43.996,-0 91.734,18.237 142.275,37.55c58.913,22.508 119.829,45.783 186.892,45.783c67.062,0 127.979,-23.275 186.891,-45.783c50.542,-19.313 98.284,-37.55 142.275,-37.55c98.925,-0 223.196,47.342 305.43,78.671l1.487,0.566c32.254,12.292 68.367,-3.9 80.654,-36.154c12.288,-32.254 -3.9,-68.366 -36.158,-80.654Z" style="fill:#c4d925;fill-rule:nonzero;"/></g></svg>