<svg width="50" height="50" viewBox="0 0 50 50" fill="none" xmlns="http://www.w3.org/2000/svg">
<path d="M9.375 14.0625H40.625C44.0768 14.0625 46.875 16.8607 46.875 20.3125V29.6875C46.875 33.1393 44.0768 35.9375 40.625 35.9375H9.375C5.92322 35.9375 3.125 33.1393 3.125 29.6875V20.3125C3.125 16.8607 5.92322 14.0625 9.375 14.0625ZM9.375 17.1875C7.64911 17.1875 6.25 18.5866 6.25 20.3125V29.6875C6.25 31.4134 7.64911 32.8125 9.375 32.8125H40.625C42.3509 32.8125 43.75 31.4134 43.75 29.6875V20.3125C43.75 18.5866 42.3509 17.1875 40.625 17.1875H9.375Z" fill="black"/>
<path d="M3.125 6.25C3.125 5.38706 3.82456 4.6875 4.6875 4.6875H45.3125C46.1754 4.6875 46.875 5.38706 46.875 6.25C46.875 7.11295 46.1754 7.8125 45.3125 7.8125H4.6875C3.82456 7.8125 3.125 7.11295 3.125 6.25Z" fill="black"/>
<path d="M3.125 43.75C3.125 42.8871 3.82456 42.1875 4.6875 42.1875H45.3125C46.1754 42.1875 46.875 42.8871 46.875 43.75C46.875 44.6129 46.1754 45.3125 45.3125 45.3125H4.6875C3.82456 45.3125 3.125 44.6129 3.125 43.75Z" fill="black"/>
</svg>
