<?xml version="1.0" encoding="UTF-8" standalone="no"?><!DOCTYPE svg PUBLIC "-//W3C//DTD SVG 1.1//EN" "http://www.w3.org/Graphics/SVG/1.1/DTD/svg11.dtd"><svg width="100%" height="100%" viewBox="0 0 2134 2134" version="1.1" xmlns="http://www.w3.org/2000/svg" xmlns:xlink="http://www.w3.org/1999/xlink" xml:space="preserve" xmlns:serif="http://www.serif.com/" style="fill-rule:evenodd;clip-rule:evenodd;stroke-linejoin:round;stroke-miterlimit:2;"><g><path d="M927.646,1202.95l61.231,-26.48l26.466,61.2l-61.23,26.48l-26.467,-61.2Z" style="fill:#c4d925;fill-rule:nonzero;"/><path d="M981.538,1325.04l61.231,-26.547l23.999,55.355l-61.23,26.547l-24,-55.355Z" style="fill:#c4d925;fill-rule:nonzero;"/><path d="M874.628,1080.57l61.231,-26.479l26.467,61.2l-61.231,26.479l-26.467,-61.2Z" style="fill:#c4d925;fill-rule:nonzero;"/><path d="M1366.67,566.667l-0,66.666l158.733,0l110.867,247.3l60.8,-27.266l-128.5,-286.7l-201.9,-0Z" style="fill:#c4d925;fill-rule:nonzero;"/><path d="M266.667,500c128.633,0 233.333,-104.7 233.333,-233.333c0,-128.634 -104.7,-233.334 -233.333,-233.334l-33.334,0l0,58.534l8.367,9.433c16.1,18.233 24.967,41.433 24.967,65.367c-0,55.133 -44.867,100 -100,100c-23.934,-0 -47.134,-8.867 -65.367,-24.967l-9.433,-8.367l-58.534,0l0,33.334c0,128.633 104.7,233.333 233.334,233.333Zm-100,-166.667c91.9,0 166.666,-74.766 166.666,-166.666c0,-19.534 -3.466,-38.734 -10.166,-56.8c64.166,23.2 110.166,84.733 110.166,156.8c0,91.9 -74.766,166.666 -166.666,166.666c-72.067,0 -133.6,-46 -156.8,-110.166c18.066,6.7 37.266,10.166 56.8,10.166Z" style="fill:#c4d925;fill-rule:nonzero;"/><path d="M2000.03,703.567l0.067,-3.567c0,-26.567 -6.4,-52.067 -17.867,-74.833c67.934,-21.034 117.767,-83.734 117.767,-158.5c0,-41.367 -15.533,-80.734 -43.267,-111.2c6.6,-18 9.934,-36.6 9.934,-55.467c-0,-91.9 -74.767,-166.667 -166.667,-166.667c-18.967,0 -37.467,3.567 -55.1,9.734c-33.067,-65 -100.433,-109.734 -178.233,-109.734c-44.434,0 -87.467,15.2 -122.4,42.567c-30.267,-27.1 -69.734,-42.567 -110.934,-42.567c-70.433,0 -130.8,44 -155,106.967c-14.4,-4.1 -29.3,-6.967 -45,-6.967c-91.9,0 -166.666,74.767 -166.666,166.667c-0,19.067 3.5,37.933 9.833,55.767c-19.467,21.633 -33.767,48 -39.8,77.566l-558.267,0l-445.1,992.867l0,73.8l1156.77,-0c-13.867,29.8 -23.433,63 -23.433,101.633c-0,51.5 16.9,98.5 46.233,138.334l-303.133,303.133l47.133,47.133l301.9,-301.9c16.7,13.7 35.367,25.867 55.7,36.3l-142.6,224.134l56.267,35.8l149.533,-235c27.467,8.066 56.7,13.633 87.567,15.866l1.4,234.767l66.666,-0.4l-1.433,-234.133c37.267,-2 71.5,-7.367 102.5,-15.9l171.967,236.5l53.9,-39.2l-161.334,-221.867c17.667,-8.967 33.7,-19.367 48.067,-31.067l296.1,296.1l47.133,-47.133l-298.166,-298.167c26.8,-39.466 41.266,-87.5 41.266,-143.3c0,-34.6 -7.766,-68.5 -19.666,-101.633l286.333,0l-0,-73.8l-251.7,-561.5c84.2,-9.7 150.733,-78.3 151.733,-161.133Zm-800.033,-336.9l-0,-66.667c-23.067,0 -45.033,4.733 -65.033,13.233c-0.6,-4.4 -1.634,-8.7 -1.634,-13.233c0,-55.133 44.867,-100 100,-100c55.134,0 100,44.867 100,100l66.667,0c-0,-52.233 -24.633,-98.333 -62.367,-128.933c12.434,-41.534 50.834,-71.067 95.7,-71.067c32.334,0 62.867,15.967 81.667,42.633l24.3,34.434l27.9,-31.567c25.967,-29.333 61.267,-45.5 99.467,-45.5c73.533,0 133.333,59.8 133.333,133.333c-0,73.534 -59.8,133.334 -133.333,133.334l-0,66.666c110.3,0 200,-89.7 200,-200c-0,-9.066 -0.8,-17.9 -2,-26.633c11.233,-4.267 23.1,-6.7 35.333,-6.7c55.133,0 100,44.867 100,100c-0,16.067 -4.267,32.033 -12.633,47.4l-13.3,24.4l21.633,17.467c23.933,19.333 37.633,47.533 37.633,77.4c0,55.133 -44.866,100 -100,100l0,0.1c-13.1,-9.867 -27.733,-17.967 -43.7,-23.7l-22.466,62.766c39.6,14.2 66.233,52.067 66.2,95.667c-0.667,54.333 -47.8,98.5 -105.067,98.5l-9,0l-164.367,-366.667l-548.8,0c13.8,-38.7 50.467,-66.666 93.867,-66.666Zm-418.3,985.933c-160.167,-192.2 -248.367,-435.8 -248.367,-685.933l0,-39.2l349.2,805.866l-33.6,0l-67.233,-80.733Zm-19.533,80.733l-524.334,0l31.7,-38.033c111.134,-133.367 189.367,-290.1 230.467,-456.8c41.1,166.667 119.333,323.4 230.467,456.767l31.7,38.066Zm-295.5,-810.833l-0,44.167c-0,250.133 -88.2,493.733 -248.367,685.966l-67.233,80.7l-47.867,0l363.467,-810.833Zm766.666,979.133c0,-60.533 32.734,-105.266 67.367,-152.633c22.867,-31.167 46.233,-63.1 58.033,-99.267c20.734,12.167 41.267,29.767 41.267,50.267l-0,33.333l66.667,0l-0,-33.333c-0,-24.033 -8.434,-44.4 -20.867,-61.367c26.533,-63.7 89.7,-104.433 129.767,-124.8c14.366,41.2 44.466,85.967 77.833,135.6c53.067,78.967 113.267,168.434 113.267,252.2c-0,95.067 -51.067,145.434 -113.634,171.667c8.634,-19.433 13.634,-40.767 13.634,-63.333c-0,-35.434 -12.2,-70.234 -34.334,-97.934l-132.333,-165.4l-132.3,165.4c-22.167,27.667 -34.367,62.467 -34.367,97.934c0,19.3 3.967,37.566 10.4,54.666c-67.666,-35.233 -110.4,-93.866 -110.4,-163Zm265.034,198.367c-4.334,0 -8.534,-0.3 -12.8,-0.467c-47.534,-2.366 -85.567,-41.466 -85.567,-89.566c-0,-20.367 7,-40.367 19.767,-56.267l80.233,-100.333l80.267,100.366c12.733,15.867 19.733,35.867 19.733,56.234c-0,48.833 -39.167,88.533 -87.7,89.8c-4.733,0.1 -9.467,0.233 -13.933,0.233Zm285.433,-366.667c-22.433,-42.233 -49.367,-82.833 -75.1,-121.1c-37.067,-55.1 -75.367,-112.066 -75.367,-145.566l0,-46.6l-44.1,15.066c-6.233,2.1 -137.6,48.134 -195.6,158c-25.366,-15.2 -48.066,-22.6 -50.233,-23.266l-43.4,-13.767l-0,45.533c-0,35.5 -24.567,69.1 -53.067,108c-5.633,7.7 -11.366,15.634 -17.066,23.7l-274.634,0l-404.433,-933.333l1060.97,0l418.4,933.333l-246.367,0Z" style="fill:#c4d925;fill-rule:nonzero;"/><rect x="1233.33" y="566.667" width="66.667" height="66.667" style="fill:#c4d925;fill-rule:nonzero;"/><rect x="1100" y="566.667" width="66.667" height="66.667" style="fill:#c4d925;fill-rule:nonzero;"/></g></svg>