<?xml version="1.0" encoding="UTF-8" standalone="no"?><!DOCTYPE svg PUBLIC "-//W3C//DTD SVG 1.1//EN" "http://www.w3.org/Graphics/SVG/1.1/DTD/svg11.dtd"><svg width="100%" height="100%" viewBox="0 0 2134 2134" version="1.1" xmlns="http://www.w3.org/2000/svg" xmlns:xlink="http://www.w3.org/1999/xlink" xml:space="preserve" xmlns:serif="http://www.serif.com/" style="fill-rule:evenodd;clip-rule:evenodd;stroke-linejoin:round;stroke-miterlimit:2;"><g><path d="M681.25,837.5c0,211.433 173.983,385.417 385.417,385.417c211.433,-0 385.416,-173.984 385.416,-385.417c0,-211.433 -173.983,-385.417 -385.416,-385.417c-211.339,0.251 -385.166,174.079 -385.417,385.417Zm708.333,0c0,177.147 -145.769,322.917 -322.916,322.917c-177.147,-0 -322.917,-145.77 -322.917,-322.917c0,-177.147 145.77,-322.917 322.917,-322.917c177.069,0.206 322.711,145.848 322.916,322.917Z" style="fill:#c4d925;fill-rule:nonzero;"/><path d="M827.083,837.5c0,131.432 108.152,239.583 239.584,239.583c131.431,0 239.583,-108.151 239.583,-239.583c0,-17.143 -14.107,-31.25 -31.25,-31.25c-97.102,-0.114 -176.969,-79.981 -177.083,-177.083c-0,-17.144 -14.107,-31.25 -31.25,-31.25c-131.38,0.137 -239.447,108.203 -239.584,239.583Zm414.292,28.917c-14.089,85.116 -88.432,148.164 -174.706,148.164c-97.145,0 -177.083,-79.938 -177.083,-177.083c-0,-86.274 63.048,-160.617 148.164,-174.706c15.1,105.247 98.378,188.525 203.625,203.625Z" style="fill:#c4d925;fill-rule:nonzero;"/><path d="M1670.83,931.25l83.334,0c51.429,0 93.75,-42.32 93.75,-93.75c-0,-51.43 -42.321,-93.75 -93.75,-93.75l-83.334,0c-51.429,0 -93.75,42.32 -93.75,93.75c0,51.43 42.321,93.75 93.75,93.75Zm0,-125l83.334,0c17.143,0 31.25,14.107 31.25,31.25c-0,17.143 -14.107,31.25 -31.25,31.25l-83.334,0c-17.143,0 -31.25,-14.107 -31.25,-31.25c0,-17.143 14.107,-31.25 31.25,-31.25Z" style="fill:#c4d925;fill-rule:nonzero;"/><path d="M462.5,743.75l-83.333,0c-51.43,0 -93.75,42.32 -93.75,93.75c-0,51.43 42.32,93.75 93.75,93.75l83.333,0c51.43,0 93.75,-42.32 93.75,-93.75c0,-51.43 -42.32,-93.75 -93.75,-93.75Zm0,125l-83.333,0c-17.144,0 -31.25,-14.107 -31.25,-31.25c-0,-17.143 14.106,-31.25 31.25,-31.25l83.333,0c17.143,0 31.25,14.107 31.25,31.25c0,17.143 -14.107,31.25 -31.25,31.25Z" style="fill:#c4d925;fill-rule:nonzero;"/><path d="M2109.96,640.583l-137.041,-35.583l-0,-124.542c0.02,-12.849 -7.877,-24.461 -19.834,-29.166c-238.666,-93.5 -553.458,-145.042 -886.416,-145.042c-332.959,0 -647.75,51.542 -886.417,145.125c-11.957,4.705 -19.853,16.317 -19.833,29.167l-0,124.458l-137.042,35.583c-13.726,3.575 -23.379,16.067 -23.375,30.25l0,333.334c-0.004,14.183 9.649,26.675 23.375,30.25l137.042,35.583l-0,124.542c-0.02,12.849 7.876,24.461 19.833,29.166c206,80.709 468.792,130.125 751,142.125l0,72.25l-143,35.75c-13.862,3.483 -23.66,16.041 -23.667,30.334l0,135.416l-364.583,0c-51.43,0 -93.75,42.321 -93.75,93.75c0,51.43 42.32,93.75 93.75,93.75l1333.33,0c51.43,0 93.75,-42.32 93.75,-93.75c0,-51.429 -42.32,-93.75 -93.75,-93.75l-364.583,0l0,-135.416c-0.007,-14.293 -9.805,-26.851 -23.667,-30.334l-143,-35.75l0,-72.25c282.209,-12 545,-61.416 751,-142.208c11.957,-4.705 19.854,-16.317 19.834,-29.167l-0,-124.458l137.041,-35.583c13.726,-3.575 23.379,-16.067 23.375,-30.25l0,-333.334c0.004,-14.183 -9.649,-26.675 -23.375,-30.25Zm-2047.46,339.417l0,-285l97.917,-25.417l-0,335.834l-97.917,-25.417Zm764.583,548.583l104.167,-26.041l0,137.041l-104.167,0l0,-111Zm937.5,204.75c0,17.144 -14.106,31.25 -31.25,31.25l-1333.33,0c-17.143,0 -31.25,-14.106 -31.25,-31.25c0,-17.143 14.107,-31.25 31.25,-31.25l1333.33,0c17.144,0 31.25,14.107 31.25,31.25Zm-458.333,-204.75l0,111l-104.167,0l0,-137.041l104.167,26.041Zm-166.667,111l-145.833,0l0,-271.708c24.222,0.583 48.528,0.875 72.917,0.875c24.389,0 48.694,-0.292 72.916,-0.875l0,271.708Zm770.834,-466.666c-229.167,86 -527.625,133.333 -843.75,133.333c-316.125,0 -614.667,-47.208 -843.75,-133.333l-0,-670.959c229.166,-86 527.625,-133.333 843.75,-133.333c316.125,0 614.666,47.208 843.75,133.333l-0,670.959Zm160.416,-192.917l-97.916,25.417l-0,-335.834l97.916,25.417l0,285Z" style="fill:#c4d925;fill-rule:nonzero;"/></g></svg>