<svg width="20" height="20" viewBox="0 0 20 20" fill="none" xmlns="http://www.w3.org/2000/svg">
<g clip-path="url(#clip0_2704_389)">
<path d="M19 0H1C0.447715 0 0 0.447715 0 1V19C0 19.5523 0.447715 20 1 20H19C19.5523 20 20 19.5523 20 19V1C20 0.447715 19.5523 0 19 0Z" fill="#356AD1"/>
<path fill-rule="evenodd" clip-rule="evenodd" d="M4.14062 15.8315C8.43563 13.677 11.565 13.699 15.86 15.9003V17.3446C11.5654 15.1435 8.43527 15.144 4.14062 17.3446V15.8315ZM4.14062 12.2208C4.18672 8.59828 6.2991 5.58406 10.0003 2.69531C13.7004 5.58336 15.815 8.59914 15.86 12.2208V14.4216C11.5654 12.2205 8.43527 12.2211 4.14062 14.4216V12.2208ZM14.3865 12.2208C10.6431 9.07406 5.82969 10.0765 5.82969 10.0765C5.82969 10.0765 5.7366 10.3309 5.6782 10.9241C5.62117 11.5036 5.62172 12.1168 5.62172 12.2054C8.54621 11.105 11.4625 11.1202 14.3865 12.2206V12.2208Z" fill="white"/>
</g>
<defs>
<clipPath id="clip0_2704_389">
<rect width="20" height="20" fill="white"/>
</clipPath>
</defs>
</svg>
