<?xml version="1.0" encoding="UTF-8" standalone="no"?><!DOCTYPE svg PUBLIC "-//W3C//DTD SVG 1.1//EN" "http://www.w3.org/Graphics/SVG/1.1/DTD/svg11.dtd"><svg width="100%" height="100%" viewBox="0 0 2130 2130" version="1.1" xmlns="http://www.w3.org/2000/svg" xmlns:xlink="http://www.w3.org/1999/xlink" xml:space="preserve" xmlns:serif="http://www.serif.com/" style="fill-rule:evenodd;clip-rule:evenodd;stroke-linejoin:round;stroke-miterlimit:2;"><g><path d="M1929.02,1098.78c0,-217.544 -176.998,-394.542 -394.558,-394.542c-217.56,0 -394.558,176.998 -394.558,394.542c0,217.56 176.998,394.558 394.558,394.558c217.56,-0 394.558,-176.998 394.558,-394.558Zm-705.929,0c0,-171.686 139.685,-311.371 311.387,-311.371c171.686,0 311.371,139.685 311.371,311.371c0,171.702 -139.685,311.387 -311.371,311.387c-171.702,0 -311.387,-139.685 -311.387,-311.387Z" style="fill:#c4d925;fill-rule:nonzero;"/><path d="M1534.48,533.495c-5.539,0 -11.062,0.098 -16.553,0.26c-1.494,-0.162 -3.005,-0.26 -4.548,-0.26l-446.475,0c-22.953,0 -41.585,18.616 -41.585,41.586c-0,22.953 18.632,41.585 41.585,41.585l172.71,0c-115.384,70.825 -203.541,181.888 -244.753,313.515l-188.239,188.239c-13.451,13.434 -31.319,20.842 -50.325,20.842l-232.683,-0c-41.229,-0 -79.987,16.065 -109.13,45.208l-129.223,129.207c-106.433,-131.01 -168.827,-297.596 -168.827,-476.169c-0,-28.704 1.657,-57.018 4.808,-84.893l293.665,-0c22.969,-0 41.585,-18.632 41.585,-41.586c0,-22.969 -18.616,-41.585 -41.585,-41.585l-279.581,0c17.024,-74.545 45.127,-144.899 82.456,-209.259l112.752,-0c19.022,-0 36.891,7.391 50.325,20.841l65.042,65.043c29.158,29.158 67.917,45.207 109.145,45.207l171.768,0c41.244,0 79.986,-16.049 109.145,-45.207l130.75,-130.751c13.434,-13.45 31.303,-20.841 50.309,-20.841l49.886,-0c22.97,-0 41.586,-18.633 41.586,-41.586c-0,-22.969 -18.616,-41.585 -41.586,-41.585l-49.886,-0c-41.228,-0 -79.971,16.049 -109.129,45.208l-130.751,130.75c-13.434,13.434 -31.302,20.842 -50.324,20.842l-171.768,-0c-19.022,-0 -36.891,-7.408 -50.325,-20.842l-65.058,-65.058c-29.142,-29.143 -67.901,-45.192 -109.129,-45.192l-56.79,0c49.106,-63.531 108.073,-119.054 174.658,-164.214l244.786,0c19.022,0 36.891,7.408 50.325,20.858l2.469,2.469c29.158,29.142 67.917,45.208 109.145,45.208c41.212,0 79.971,-16.066 109.13,-45.208l121.539,-121.54c123.295,36.712 235.494,104.435 325.471,196.719l-181.481,-0c-22.97,-0 -41.586,18.616 -41.586,41.585c0,22.97 18.616,41.586 41.586,41.586l251.527,-0c17.803,24.496 34.324,50.146 49.252,76.998c11.16,20.094 36.485,27.306 56.547,16.147c20.078,-11.16 27.307,-36.485 16.147,-56.547c-111.647,-200.828 -299.058,-344.168 -515.042,-402.323c-1.251,-0.454 -2.486,-0.926 -3.785,-1.267c-36.891,-9.697 -74.48,-16.78 -112.459,-21.361c-58.967,-7.18 -118.665,-8.025 -177.811,-2.648c-17.284,1.576 -34.503,3.688 -51.64,6.319c-117.479,18.08 -229.76,60.916 -329.987,126.56c-1.608,1.039 -3.119,2.225 -4.565,3.476c-98.798,65.757 -182.894,151.933 -246.247,252.436c-2.161,2.648 -3.98,5.589 -5.442,8.724c-55.523,90.545 -94.298,192.413 -112.037,301.25c-0.227,1.024 -0.39,2.08 -0.52,3.135c-6.855,43.048 -10.461,87.184 -10.461,132.132c-0,383.495 259.227,717.283 630.376,811.695c3.444,0.877 6.888,1.3 10.283,1.3c18.567,-0 35.494,-12.525 40.286,-31.352c5.653,-22.255 -7.797,-44.883 -30.052,-50.552c-133.073,-33.853 -250.13,-101.884 -342.869,-193.291l132.018,-132.018c13.45,-13.45 31.319,-20.841 50.325,-20.841l232.683,-0c41.212,-0 79.971,-16.066 109.129,-45.208l104.354,-104.353c-0.39,8.577 -0.617,17.219 -0.617,25.893c-0,113.304 33.625,220.549 92.803,310.624l-125.942,125.958l-6.335,-6.335c-7.797,-7.798 -18.372,-12.167 -29.402,-12.167c-11.03,-0 -21.621,4.369 -29.419,12.167l-318.502,318.518c-64.344,64.344 -64.344,169.022 0,233.366c32.164,32.18 74.415,48.261 116.667,48.261c42.267,0 84.519,-16.081 116.683,-48.261l318.518,-318.502c16.244,-16.245 16.244,-42.577 -0,-58.821l-6.319,-6.319l126.007,-125.991c39.977,26.251 83.691,47.791 130.62,63.548c21.768,7.31 45.355,-4.435 52.648,-26.202c7.31,-21.784 -4.418,-45.354 -26.186,-52.664c-49.285,-16.537 -94.509,-40.481 -134.616,-70.338c-0.682,-0.569 -1.316,-1.17 -2.031,-1.706c-35.981,-27.193 -67.95,-59.129 -94.964,-94.964c-0.211,-0.26 -0.439,-0.504 -0.65,-0.763c-61.111,-81.514 -96.393,-182.262 -96.393,-289.409c-0,-265.838 216.276,-482.115 482.114,-482.115c265.871,0 482.164,216.277 482.164,482.115c-0,208.561 -132.976,392.576 -330.897,457.911c-21.816,7.196 -33.658,30.701 -26.462,52.518c5.767,17.478 22.028,28.557 39.49,28.557c4.321,0 8.707,-0.666 13.044,-2.095c232.067,-76.609 387.996,-292.365 387.996,-536.891c-0,-311.696 -253.623,-565.286 -565.335,-565.286Zm-629.028,-356.188c-13.45,13.434 -31.319,20.841 -50.325,20.841c-19.022,0 -36.891,-7.391 -50.325,-20.841l-2.469,-2.47c-29.158,-29.158 -67.917,-45.207 -109.145,-45.207l-83.139,-0c52.112,-19.266 106.904,-32.928 163.662,-40.254c49.415,-6.319 99.415,-7.813 149.106,-4.418c22.612,1.559 45.029,4.207 67.203,7.764l-84.568,84.585Zm-178.541,1844.8c-31.888,31.904 -83.821,31.904 -115.724,0c-31.904,-31.904 -31.904,-83.837 -0,-115.74l289.099,-289.1l6.287,6.286c0.016,0.017 0.032,0.033 0.049,0.033l103.086,103.102c0.016,0.017 0.033,0.017 0.049,0.033l6.27,6.27l-289.116,289.116Zm312.216,-383.641l-44.282,-44.282l118.291,-118.291c13.905,15.529 28.703,30.311 44.298,44.265l-118.307,118.308Z" style="fill:#c4d925;fill-rule:nonzero;"/><path d="M728.537,737.54c-41.228,0 -79.987,16.066 -109.129,45.208l-50.747,50.747c-13.45,13.451 -31.319,20.858 -50.325,20.858l-66.358,-0c-22.969,-0 -41.585,18.616 -41.585,41.585c-0,22.954 18.632,41.586 41.585,41.586l66.358,-0c41.228,-0 79.987,-16.066 109.129,-45.208l50.748,-50.764c13.45,-13.434 31.319,-20.841 50.324,-20.841l196.394,0c22.953,0 41.585,-18.616 41.585,-41.585c0,-22.954 -18.632,-41.586 -41.585,-41.586l-196.394,0Z" style="fill:#c4d925;fill-rule:nonzero;"/><path d="M244.327,854.337c-22.969,-0 -41.585,18.632 -41.585,41.585c-0,22.97 18.616,41.586 41.585,41.586l50.39,-0c22.969,-0 41.585,-18.616 41.585,-41.586c0,-22.953 -18.616,-41.585 -41.585,-41.585l-50.39,-0Z" style="fill:#c4d925;fill-rule:nonzero;"/><path d="M977.611,1387.46c0,-22.97 -18.616,-41.586 -41.585,-41.586l-312.313,0c-22.953,0 -41.586,18.632 -41.586,41.586c0,22.969 18.633,41.585 41.586,41.585l312.313,-0c22.969,-0 41.585,-18.616 41.585,-41.585Z" style="fill:#c4d925;fill-rule:nonzero;"/><path d="M1566.74,1030.82c-43.616,27.648 -69.672,73.895 -69.672,123.733l-0,4.678c-0,22.97 18.632,41.585 41.585,41.585c22.97,0 41.586,-18.615 41.586,-41.585l-0,-4.678c-0,-21.183 11.598,-41.18 31.026,-53.493c41.878,-26.527 65.968,-73.781 62.898,-123.327c-4.24,-68.128 -58.788,-122.677 -126.917,-126.916c-37.898,-2.372 -73.976,10.64 -101.559,36.566c-27.209,25.568 -42.804,61.631 -42.804,98.944c0,22.969 18.632,41.585 41.586,41.585c22.969,0 41.585,-18.616 41.585,-41.585c0,-14.669 5.897,-28.282 16.585,-38.337c10.689,-10.055 24.708,-15.075 39.442,-14.165c25.909,1.625 47.449,23.164 49.057,49.074c1.219,19.266 -8.138,37.622 -24.398,47.921Z" style="fill:#c4d925;fill-rule:nonzero;"/><path d="M1546.78,1335.59c17.106,-3.492 30.361,-17.397 33.009,-34.649c2.583,-16.877 -6.011,-34.194 -20.923,-42.462c-15.643,-8.658 -35.543,-6.222 -48.619,5.978c-12.541,11.696 -16.504,30.458 -9.99,46.263c7.439,18.08 27.355,28.769 46.523,24.87Z" style="fill:#c4d925;fill-rule:nonzero;"/><path d="M1572.87,1606.58c-6.693,-16.033 -23.1,-26.543 -40.497,-25.601c-16.83,0.926 -31.839,12.167 -37.281,28.168c-5.637,16.569 0.032,35.51 13.921,46.215c13.629,10.526 32.765,11.501 47.401,2.436c17.138,-10.624 24.058,-32.635 16.456,-51.218Z" style="fill:#c4d925;fill-rule:nonzero;"/></g></svg>