<svg width="150" height="30" viewBox="0 0 150 30" fill="none" xmlns="http://www.w3.org/2000/svg">
<path fill-rule="evenodd" clip-rule="evenodd" d="M41.7814 3.03516L29.3651 27.308H17.7025L22.8988 17.2483H22.6657C18.3788 22.8131 11.9827 26.4767 2.86914 27.308V17.3875C2.86914 17.3875 8.69925 17.0432 12.1266 13.4397H2.86914V3.03532H13.2735V11.5929L13.5071 11.5919L17.7586 3.03532H25.6273V11.5386L25.8608 11.5382L30.2719 3.03516H41.7814Z" fill="#146EF5"/>
<path d="M109.488 24.6283H112.839V5.39453H109.488V24.6283Z" fill="#080808"/>
<path fill-rule="evenodd" clip-rule="evenodd" d="M91.0165 24.4313C91.7448 24.7342 92.4853 24.8856 93.2381 24.8856C94.482 24.8856 95.5948 24.5828 96.5767 23.9773C97.5586 23.3717 98.3196 22.537 98.8597 21.4732C99.3998 20.4013 99.6699 19.1862 99.6699 17.8279C99.6699 16.4695 99.3915 15.2543 98.8352 14.1824C98.2787 13.1104 97.5055 12.2799 96.5153 11.6907C95.5253 11.0933 94.4001 10.7988 93.1399 10.8069C92.338 10.8069 91.5689 10.9625 90.8324 11.2734C90.096 11.5843 89.4823 12.0263 88.9913 12.599C88.9533 12.6427 88.9165 12.6867 88.8808 12.7312V5.40625H85.5176V24.6278H88.8563L88.8495 22.8321C88.9359 22.938 89.0282 23.0414 89.1263 23.1427C89.6582 23.6909 90.2883 24.1204 91.0165 24.4313ZM94.4532 21.3259C93.905 21.6615 93.279 21.8293 92.5753 21.8293C91.8798 21.8293 91.2416 21.6574 90.6606 21.3137C90.0796 20.9619 89.6173 20.4832 89.2736 19.8776C88.938 19.2721 88.7703 18.5847 88.7703 17.8156C88.7621 17.0463 88.9258 16.359 89.2612 15.7535C89.6049 15.1398 90.0672 14.6652 90.6482 14.3296C91.2293 13.986 91.8715 13.8183 92.5753 13.8264C93.279 13.8183 93.905 13.982 94.4532 14.3174C95.0097 14.6447 95.4353 15.1153 95.7298 15.7289C96.0326 16.3345 96.1839 17.03 96.1839 17.8156C96.1839 18.6011 96.0326 19.2966 95.7298 19.9022C95.4353 20.5077 95.0097 20.9823 94.4532 21.3259Z" fill="#080808"/>
<path d="M46.6348 6.5625H50.4644L53.89 19.0733L57.5344 6.5625H60.7257L64.678 18.8223L67.9674 6.5625H71.4779L66.2981 24.6302H62.9964L58.9775 12.6535L55.2881 24.6302H51.9496L46.6348 6.5625Z" fill="#080808"/>
<path fill-rule="evenodd" clip-rule="evenodd" d="M77.1346 24.944C75.8009 24.9521 74.5979 24.6576 73.526 24.0603C72.4623 23.4546 71.6236 22.616 71.0098 21.5439C70.4042 20.472 70.1016 19.2487 70.1016 17.8741C70.1016 16.5402 70.4125 15.3333 71.0343 14.2531C71.6563 13.1731 72.4991 12.3301 73.5629 11.7247C74.6266 11.1191 75.8131 10.8164 77.1224 10.8164C78.5952 10.8164 79.8841 11.1437 80.9888 11.7983C82.1016 12.4529 82.9322 13.3817 83.4804 14.5845C84.0369 15.7792 84.2373 17.1498 84.0819 18.6963H73.568C73.5975 19.3125 73.7512 19.873 74.0292 20.378C74.3403 20.9343 74.774 21.368 75.3303 21.679C75.8868 21.99 76.5086 22.1454 77.196 22.1454C77.7197 22.1373 78.2065 22.0473 78.6566 21.8754C79.1067 21.6953 79.4873 21.4541 79.7982 21.1513C80.1172 20.8484 80.3423 20.5048 80.4733 20.1202H83.9836C83.771 21.0612 83.3454 21.9 82.7072 22.6364C82.069 23.3646 81.2669 23.9333 80.3014 24.3425C79.3359 24.7516 78.2803 24.9521 77.1346 24.944ZM74.0416 15.321C73.8454 15.6629 73.7095 16.0312 73.6341 16.4257H80.6034C80.5527 15.9273 80.3989 15.4731 80.1419 15.0632C79.8473 14.5804 79.4462 14.2081 78.9389 13.9463C78.4316 13.6763 77.8589 13.5412 77.2206 13.5412C76.5414 13.5412 75.9237 13.6968 75.3672 14.0077C74.8107 14.3186 74.3689 14.7563 74.0416 15.321Z" fill="#080808"/>
<path d="M102.137 11.1043C102.137 10.0077 102.386 9.03392 102.886 8.1829C103.385 7.32378 104.084 6.65692 104.985 6.18235C105.893 5.69951 106.953 5.44998 108.163 5.43359V8.41622C107.599 8.42433 107.116 8.54297 106.715 8.77215C106.322 8.99305 106.02 9.31638 105.807 9.74181C105.611 10.1335 105.505 10.5877 105.49 11.1043H108.09V13.9397H105.488V24.6305H102.137V13.9397H99.9766V11.1043H102.137Z" fill="#080808"/>
<path fill-rule="evenodd" clip-rule="evenodd" d="M121.357 24.9201C119.99 24.9201 118.767 24.6214 117.687 24.024C116.615 23.4186 115.772 22.5839 115.158 21.5201C114.553 20.4482 114.25 19.233 114.25 17.8748C114.25 16.5082 114.553 15.289 115.158 14.217C115.772 13.1368 116.615 12.2981 117.687 11.7007C118.767 11.1034 119.99 10.8047 121.357 10.8047C122.732 10.8047 123.959 11.1034 125.039 11.7007C126.127 12.2981 126.974 13.1327 127.58 14.2048C128.185 15.2767 128.492 16.5001 128.5 17.8748C128.492 19.233 128.185 20.4482 127.58 21.5201C126.983 22.5839 126.14 23.4186 125.051 24.024C123.963 24.6214 122.732 24.9201 121.357 24.9201ZM121.357 21.8393C122.077 21.8393 122.715 21.6757 123.272 21.3484C123.828 21.0128 124.258 20.5463 124.56 19.949C124.863 19.3435 125.015 18.652 125.015 17.8748C125.015 17.0891 124.863 16.3937 124.56 15.788C124.258 15.1826 123.828 14.7161 123.272 14.3888C122.715 14.0534 122.077 13.8856 121.357 13.8856C120.645 13.8856 120.011 14.0534 119.454 14.3888C118.906 14.7161 118.481 15.1826 118.178 15.788C117.875 16.3937 117.728 17.0891 117.736 17.8748C117.736 18.652 117.887 19.3435 118.19 19.949C118.501 20.5463 118.927 21.0128 119.467 21.3484C120.015 21.6757 120.645 21.8393 121.357 21.8393Z" fill="#080808"/>
<path d="M132.122 11.1016H128.391L132.429 24.6277H135.694L138.349 15.9886L141.217 24.6277H144.433L148.484 11.1016H145.108L142.811 19.5208L140.272 11.1016H137.007L134.48 19.7061L132.122 11.1016Z" fill="#080808"/>
</svg>
