<?xml version="1.0" encoding="UTF-8" standalone="no"?><!DOCTYPE svg PUBLIC "-//W3C//DTD SVG 1.1//EN" "http://www.w3.org/Graphics/SVG/1.1/DTD/svg11.dtd"><svg width="100%" height="100%" viewBox="0 0 2134 2134" version="1.1" xmlns="http://www.w3.org/2000/svg" xmlns:xlink="http://www.w3.org/1999/xlink" xml:space="preserve" xmlns:serif="http://www.serif.com/" style="fill-rule:evenodd;clip-rule:evenodd;stroke-linejoin:round;stroke-miterlimit:2;"><g><path d="M1375.76,861.173c60.661,-0.482 117.61,-24.471 160.388,-67.567c32.7,-33.002 54.154,-74.233 62.413,-118.955l68.878,-0c56.715,-0 110.081,-22.095 150.319,-62.262c40.117,-40.193 62.216,-93.555 62.216,-150.269c0,-62.224 -26.85,-121.218 -75.591,-166.095c-46.733,-43.084 -109.045,-66.813 -175.452,-66.813l-327.07,0l0,-187.31c0,-23.138 -18.763,-41.902 -41.902,-41.902c-23.138,-0 -41.901,18.764 -41.901,41.902l-0,187.44c-23.378,0.595 -46.457,3.335 -69.005,8.066l0,-190.411c0,-23.138 -18.763,-41.902 -41.902,-41.902c-23.138,0 -41.902,18.764 -41.902,41.902l0,218.397c-22.262,10.426 -43.523,22.996 -63.481,37.566l-1.919,-22.452l-0,0.005c-4.576,-53.53 -29.717,-102.074 -70.798,-136.693c-41.085,-34.615 -93.164,-51.171 -146.724,-46.591l-98.289,8.397c-23.054,1.974 -40.15,22.263 -38.181,45.317l8.397,98.294c4.576,53.526 29.717,102.069 70.798,136.688c36.601,30.836 81.947,47.337 129.255,47.333c5.795,-0 11.623,-0.247 17.469,-0.746l5.371,-0.461l-445.774,516.199l-401.881,465.22c-6.57,7.606 -10.191,17.327 -10.195,27.379l-0.201,650.566c-0.004,17.594 13.966,41.918 41.893,41.918c12.114,0 23.918,-5.263 32.039,-14.887l344.706,-408.595l265.072,-316.003l445.263,-530.894l227.691,-1.781Zm-511.116,-512.163c-31.196,2.635 -61.617,-6.981 -85.585,-27.174c-23.968,-20.192 -38.633,-48.51 -41.298,-79.735l-4.832,-56.542l56.539,-4.827c64.462,-5.515 121.381,42.455 126.887,106.912l0,0.005l4.831,56.538l-56.542,4.823Zm-83.879,484.03c-0,90.643 -73.748,164.382 -164.386,164.382c-33.404,-0 -65.287,-9.931 -92.277,-28.33l213.457,-247.176c27.723,30.061 43.206,69.218 43.206,111.124Zm-406.219,667.222c0,-89.649 72.935,-162.584 162.588,-162.584c29.788,0 58.734,8.133 83.875,23.277l-206.455,246.123c-25.673,-29.335 -40.008,-66.955 -40.008,-106.816Zm721.744,-705.981l-421.018,501.977c-40.561,-27.484 -88.585,-42.384 -138.142,-42.384c-135.863,0 -246.392,110.529 -246.392,246.388c-0,64.847 25.045,125.777 69.507,171.467l-257.312,305.004l0.164,-520.271l365.963,-423.646c42.396,31.41 93.571,48.414 147.315,48.414c136.852,-0 248.189,-111.334 248.189,-248.186c0,-66.603 -25.937,-128.576 -72.033,-174.781l208.5,-241.435c56.986,-65.97 139.663,-103.808 226.84,-103.808l401.06,0c45.301,0 87.433,15.848 118.667,44.643c18.558,17.087 32.13,37.091 40.15,58.558l-122.014,-0c-23.138,-0 -41.902,18.763 -41.902,41.901c-0,23.139 18.764,41.902 41.902,41.902l124.78,0c-6.084,19.837 -16.95,38.018 -32.013,53.111c-24.362,24.324 -56.702,37.72 -91.058,37.72l-106.963,0c-23.138,0 -41.902,18.764 -41.902,41.902c0,38.387 -14.9,74.565 -41.931,101.847c-27.077,27.283 -63.138,42.472 -101.541,42.774l-247.033,1.936c-12.281,0.088 -23.892,5.56 -31.783,14.967Z" style="fill:#c4d925;fill-rule:nonzero;"/><path d="M1314.89,381.325c-23.344,-0 -42.271,18.927 -42.271,42.27c-0,23.344 18.927,42.271 42.271,42.271c23.347,-0 42.27,-18.927 42.27,-42.271c0,-23.343 -18.923,-42.27 -42.27,-42.27Z" style="fill:#c4d925;fill-rule:nonzero;"/><path d="M2072.33,697.642l-195.221,0c-69.368,0 -134.702,27.161 -183.924,76.434c-49.331,49.226 -76.501,114.539 -76.501,183.903c0,29.814 5.012,58.914 14.754,86.415l-392.454,-0c-69.276,-0 -134.585,27.148 -183.886,76.454c-49.302,49.306 -76.45,114.623 -76.45,183.929c-0,143.577 116.784,260.387 260.336,260.387l135.52,-0c-3.026,26.964 6.025,83.536 18.487,114.312c-46.402,8.134 -89.293,28.192 -123.95,58.445c-47.806,41.739 -74.133,97.51 -74.133,157.04c-0,121.059 110.093,219.546 245.415,219.546l632.007,-0c23.139,-0 41.902,-18.764 41.902,-41.902l0,-1333.06c0,-23.138 -18.759,-41.902 -41.902,-41.902Zm-41.897,1333.06l-590.11,-0c-89.117,-0 -161.611,-60.892 -161.611,-135.742c-0,-34.971 16.14,-68.321 45.451,-93.906c30.919,-26.998 72.176,-41.864 116.164,-41.864l22.628,-0c16.069,-0 30.722,-9.19 37.72,-23.658c6.997,-14.469 5.107,-31.666 -4.869,-44.261c-24.89,-31.431 -38.047,-69.151 -38.047,-109.079c-0,-16.066 2.166,-31.909 6.432,-47.094c3.519,-11.942 1.554,-24.911 -5.502,-35.332c-7.794,-11.51 -20.792,-18.412 -34.695,-18.412l-185.005,0c-97.339,0 -176.533,-79.211 -176.533,-176.583c-0,-46.917 18.432,-91.199 51.908,-124.671c33.475,-33.471 77.732,-51.908 124.625,-51.908l461.562,0c16.95,0 32.227,-10.211 38.713,-25.866c5.72,-13.815 3.604,-29.47 -5.204,-41.198c-21.961,-30.207 -33.567,-65.866 -33.567,-103.154c-0,-46.943 18.428,-91.191 51.941,-124.629c33.434,-33.467 77.712,-51.904 124.679,-51.904l153.32,-0l-0,1249.26Z" style="fill:#c4d925;fill-rule:nonzero;"/><path d="M1847.42,1279.25l-262.583,0c-23.139,0 -41.902,18.764 -41.902,41.902c-0,23.138 18.763,41.902 41.902,41.902l262.583,0c23.138,0 41.901,-18.764 41.901,-41.902c0,-23.138 -18.763,-41.902 -41.901,-41.902Z" style="fill:#c4d925;fill-rule:nonzero;"/><path d="M1590.42,1879.85c0,23.138 18.764,41.902 41.902,41.902l262.587,-0c23.138,-0 41.902,-18.764 41.902,-41.902c0,-23.139 -18.764,-41.902 -41.902,-41.902l-262.587,-0c-23.142,-0 -41.902,18.759 -41.902,41.902Z" style="fill:#c4d925;fill-rule:nonzero;"/><circle cx="1393.48" cy="1321.16" r="41.902" style="fill:#c4d925;"/></g></svg>